<?xml version="1.0" encoding="utf-8"?>
<!-- Generator: Adobe Illustrator 21.0.2, SVG Export Plug-In . SVG Version: 6.00 Build 0)  -->
<svg version="1.1" id="Layer_1" xmlns="http://www.w3.org/2000/svg" xmlns:xlink="http://www.w3.org/1999/xlink" x="0px" y="0px"
	 viewBox="0 0 272.5 203.4" style="enable-background:new 0 0 272.5 203.4;" xml:space="preserve">
<style type="text/css">
	.st0{clip-path:url(#SVGID_2_);fill:url(#SVGID_3_);}
	.st1{clip-path:url(#SVGID_5_);fill:url(#SVGID_6_);}
	.st2{clip-path:url(#SVGID_8_);fill:url(#SVGID_9_);}
	.st3{clip-path:url(#SVGID_11_);fill:url(#SVGID_12_);}
	.st4{clip-path:url(#SVGID_14_);fill:url(#SVGID_15_);}
	.st5{clip-path:url(#SVGID_17_);fill:url(#SVGID_18_);}
	.st6{clip-path:url(#SVGID_20_);fill:url(#SVGID_21_);}
	.st7{clip-path:url(#SVGID_23_);fill:url(#SVGID_24_);}
	.st8{clip-path:url(#SVGID_26_);fill:#272727;}
</style>
<g>
	<g>
		<defs>
			<path id="SVGID_1_" d="M133.4,65.4l-16.3,5.9c0,0-2.7,0.8-5.3,1c-0.2,0-0.4,0-0.6,0c0,0,0,0,0,0h0c-1.8,0.1-3.5-0.6-4.4-1.6
				c-1.3-1.4-4.6-4.9-8.6-9.3L84.7,46.6l-6.1,2.3c5,5.5,24.8,28,28.5,31.9c0.9,1.1,2.5,1.7,4.4,1.6h0c0,0,0,0,0,0c0.2,0,0.4,0,0.6,0
				c2.6-0.2,5.3-1,5.3-1l74.9-28.7l-5.6-6.1L133.4,65.4z"/>
		</defs>
		<clipPath id="SVGID_2_">
			<use xlink:href="#SVGID_1_"  style="overflow:visible;"/>
		</clipPath>
		
			<linearGradient id="SVGID_3_" gradientUnits="userSpaceOnUse" x1="-53.625" y1="250.7437" x2="-45.9887" y2="250.7437" gradientTransform="matrix(14.5053 0 0 -14.5053 859.3476 3701.5713)">
			<stop  offset="0" style="stop-color:#404041"/>
			<stop  offset="2.528040e-02" style="stop-color:#404041"/>
			<stop  offset="0.3492" style="stop-color:#6D6E70"/>
			<stop  offset="0.7442" style="stop-color:#898B8D"/>
			<stop  offset="1" style="stop-color:#404041"/>
		</linearGradient>
		<rect x="78.6" y="46.5" class="st0" width="113.6" height="35.9"/>
	</g>
	<g>
		<defs>
			<path id="SVGID_4_" d="M78.6,62.6c5,5.5,24.8,27.1,28.5,31c0.9,1,2.5,1.7,4.4,1.6c0,0,0,0,0,0c0,0,0,0,0,0c0.2,0,0.4,0,0.6,0
				c2.6-0.2,5.3-1,5.3-1l74.9-27.8l-3.7-4.1l-55.1,19.5l-16.3,5.9c0,0-2.7,0.8-5.3,1c-0.2,0-0.4,0-0.6,0c0,0,0,0,0,0c0,0,0,0,0,0
				c-1.8,0.1-3.5-0.6-4.4-1.6c-1.3-1.4-4.6-4.9-8.6-9.3L83,61L78.6,62.6z"/>
		</defs>
		<clipPath id="SVGID_5_">
			<use xlink:href="#SVGID_4_"  style="overflow:visible;"/>
		</clipPath>
		
			<linearGradient id="SVGID_6_" gradientUnits="userSpaceOnUse" x1="-53.6255" y1="249.9327" x2="-45.9892" y2="249.9327" gradientTransform="matrix(14.5055 0 0 -14.5055 859.3595 3703.5159)">
			<stop  offset="0" style="stop-color:#404041"/>
			<stop  offset="2.528040e-02" style="stop-color:#404041"/>
			<stop  offset="0.3492" style="stop-color:#6D6E70"/>
			<stop  offset="0.7442" style="stop-color:#898B8D"/>
			<stop  offset="1" style="stop-color:#404041"/>
		</linearGradient>
		<rect x="78.6" y="61" class="st1" width="113.6" height="34.3"/>
	</g>
	<g>
		<defs>
			<path id="SVGID_7_" d="M159.4,27.4L159.4,27.4C159.4,27.4,159.4,27.4,159.4,27.4c-0.3,0-0.4,0-0.7,0c-2.6,0.2-5.3,1-5.3,1
				L78.6,56.2l0,6.4l58.9-21.8l16.3-5.9c0,0,2.7-0.8,5.3-1c0.2,0,0.4,0,0.6,0c0,0,0,0,0,0h0c1.8-0.1,3.5,0.6,4.4,1.6
				c1.3,1.4,4.6,4.9,8.6,9.3l19.6,21.6l0-5.5c-5-5.5-24.8-28-28.5-31.8c-0.9-1-2.4-1.7-4.1-1.7C159.6,27.3,159.5,27.4,159.4,27.4"/>
		</defs>
		<clipPath id="SVGID_8_">
			<use xlink:href="#SVGID_7_"  style="overflow:visible;"/>
		</clipPath>
		
			<linearGradient id="SVGID_9_" gradientUnits="userSpaceOnUse" x1="-54.0308" y1="251.4859" x2="-46.3943" y2="251.4859" gradientTransform="matrix(14.8828 0 0 -14.8828 882.7502 3789.6477)">
			<stop  offset="0" style="stop-color:#A0A2A4"/>
			<stop  offset="0.1711" style="stop-color:#E2E3E4"/>
			<stop  offset="0.537" style="stop-color:#D9DBDC"/>
			<stop  offset="0.6598" style="stop-color:#E6E7E8"/>
			<stop  offset="0.7285" style="stop-color:#EAEBEC"/>
			<stop  offset="0.8097" style="stop-color:#C5C7C9"/>
			<stop  offset="0.8944" style="stop-color:#D9DBDC"/>
			<stop  offset="1" style="stop-color:#989A9D"/>
		</linearGradient>
		<rect x="78.6" y="27.3" class="st2" width="113.7" height="39"/>
	</g>
	<g>
		<defs>
			<path id="SVGID_10_" d="M78.6,75.4c5,5.5,24.8,27.1,28.5,31c0.9,1.1,2.5,1.7,4.4,1.7c0,0,0,0,0,0c0,0,0,0,0,0c0.2,0,0.4,0,0.6,0
				c2.6-0.2,5.3-1,5.3-1l74.9-27.8l-3.7-4.1l-55.1,19.5l-16.3,5.9c0,0-2.7,0.8-5.3,1c-0.2,0-0.4,0-0.6,0c0,0,0,0,0,0s0,0,0,0
				c-1.8,0.1-3.4-0.6-4.4-1.6c-1.3-1.4-4.6-4.9-8.6-9.3L83,73.8L78.6,75.4z"/>
		</defs>
		<clipPath id="SVGID_11_">
			<use xlink:href="#SVGID_10_"  style="overflow:visible;"/>
		</clipPath>
		
			<linearGradient id="SVGID_12_" gradientUnits="userSpaceOnUse" x1="-53.6252" y1="249.1632" x2="-45.9889" y2="249.1632" gradientTransform="matrix(14.5055 0 0 -14.5055 859.3602 3705.1978)">
			<stop  offset="0" style="stop-color:#404041"/>
			<stop  offset="2.528040e-02" style="stop-color:#404041"/>
			<stop  offset="0.3492" style="stop-color:#6D6E70"/>
			<stop  offset="0.7442" style="stop-color:#898B8D"/>
			<stop  offset="1" style="stop-color:#404041"/>
		</linearGradient>
		<rect x="78.6" y="73.8" class="st3" width="113.7" height="34.3"/>
	</g>
	<g>
		<defs>
			<path id="SVGID_13_" d="M159.4,40.2C159.4,40.2,159.4,40.2,159.4,40.2C159.4,40.2,159.4,40.2,159.4,40.2c-0.2,0-0.4,0-0.7,0
				c-2.6,0.2-5.3,1-5.3,1L78.6,69.1l0,6.4l58.9-21.8l16.3-5.9c0,0,2.7-0.8,5.3-1c0.2,0,0.4,0,0.6,0c0,0,0,0,0,0h0
				c1.8-0.1,3.4,0.6,4.4,1.6c1.3,1.4,4.6,4.9,8.6,9.3l19.6,21.6l0-5.5c-5-5.5-24.8-28-28.5-31.8c-0.9-1-2.4-1.7-4.1-1.7
				C159.6,40.2,159.5,40.2,159.4,40.2"/>
		</defs>
		<clipPath id="SVGID_14_">
			<use xlink:href="#SVGID_13_"  style="overflow:visible;"/>
		</clipPath>
		
			<linearGradient id="SVGID_15_" gradientUnits="userSpaceOnUse" x1="-54.0308" y1="250.7358" x2="-46.3944" y2="250.7358" gradientTransform="matrix(14.8828 0 0 -14.8828 882.7509 3791.3296)">
			<stop  offset="0" style="stop-color:#A0A2A4"/>
			<stop  offset="0.1711" style="stop-color:#E2E3E4"/>
			<stop  offset="0.537" style="stop-color:#D9DBDC"/>
			<stop  offset="0.6598" style="stop-color:#E6E7E8"/>
			<stop  offset="0.7285" style="stop-color:#EAEBEC"/>
			<stop  offset="0.8097" style="stop-color:#C5C7C9"/>
			<stop  offset="0.8944" style="stop-color:#D9DBDC"/>
			<stop  offset="1" style="stop-color:#989A9D"/>
		</linearGradient>
		<rect x="78.6" y="40.2" class="st4" width="113.7" height="39"/>
	</g>
	<g>
		<defs>
			<path id="SVGID_16_" d="M78.6,88.2c5,5.5,24.8,27.1,28.5,31c0.9,1.1,2.5,1.7,4.4,1.6c0,0,0,0,0,0c0,0,0,0,0,0c0.2,0,0.4,0,0.6,0
				c2.6-0.2,5.3-1,5.3-1L192.3,92l-3.7-4.1l-55.1,19.5l-16.3,5.9c0,0-2.7,0.8-5.3,1c-0.2,0-0.4,0-0.6,0c0,0,0,0-0.1,0c0,0,0,0,0,0
				c-1.8,0.1-3.5-0.6-4.4-1.6c-1.3-1.4-4.6-4.9-8.6-9.3L82.9,86.7L78.6,88.2z"/>
		</defs>
		<clipPath id="SVGID_17_">
			<use xlink:href="#SVGID_16_"  style="overflow:visible;"/>
		</clipPath>
		
			<linearGradient id="SVGID_18_" gradientUnits="userSpaceOnUse" x1="-53.6257" y1="248.3937" x2="-45.9893" y2="248.3937" gradientTransform="matrix(14.5055 0 0 -14.5055 859.3592 3706.8796)">
			<stop  offset="0" style="stop-color:#404041"/>
			<stop  offset="2.528040e-02" style="stop-color:#404041"/>
			<stop  offset="0.3492" style="stop-color:#6D6E70"/>
			<stop  offset="0.7442" style="stop-color:#898B8D"/>
			<stop  offset="1" style="stop-color:#404041"/>
		</linearGradient>
		<rect x="78.6" y="86.7" class="st5" width="113.7" height="34.3"/>
	</g>
	<g>
		<defs>
			<path id="SVGID_19_" d="M159.4,53L159.4,53C159.4,53,159.4,53,159.4,53c-0.2,0-0.4,0-0.7,0c-2.6,0.2-5.3,1-5.3,1L78.6,81.9l0,6.4
				l58.9-21.8l16.3-5.9c0,0,2.7-0.8,5.3-1c0.2,0,0.4,0,0.6,0c0,0,0,0,0,0h0c1.8-0.1,3.4,0.6,4.4,1.6c1.3,1.4,4.6,4.9,8.6,9.3
				L192.3,92l0-5.5c-5-5.5-24.8-28-28.5-31.8c-0.9-1-2.4-1.7-4.1-1.7C159.6,53,159.5,53,159.4,53"/>
		</defs>
		<clipPath id="SVGID_20_">
			<use xlink:href="#SVGID_19_"  style="overflow:visible;"/>
		</clipPath>
		
			<linearGradient id="SVGID_21_" gradientUnits="userSpaceOnUse" x1="-54.0313" y1="249.9861" x2="-46.3943" y2="249.9861" gradientTransform="matrix(14.8828 0 0 -14.8828 882.7499 3793.0117)">
			<stop  offset="0" style="stop-color:#A0A2A4"/>
			<stop  offset="0.1711" style="stop-color:#E2E3E4"/>
			<stop  offset="0.537" style="stop-color:#D9DBDC"/>
			<stop  offset="0.6598" style="stop-color:#E6E7E8"/>
			<stop  offset="0.7285" style="stop-color:#EAEBEC"/>
			<stop  offset="0.8097" style="stop-color:#C5C7C9"/>
			<stop  offset="0.8944" style="stop-color:#D9DBDC"/>
			<stop  offset="1" style="stop-color:#989A9D"/>
		</linearGradient>
		<rect x="78.6" y="53" class="st6" width="113.7" height="39"/>
	</g>
	<g>
		<defs>
			<path id="SVGID_22_" d="M159.4,10C159.4,10,159.4,10,159.4,10C159.4,10,159.4,10,159.4,10c-0.2,0-0.4,0-0.7,0
				c-2.6,0.2-5.3,1-5.3,1L78.6,38.9v10L137.5,27l16.3-5.9c0,0,2.7-0.8,5.3-1c0.2,0,0.4,0,0.6,0c0,0,0,0,0,0h0
				c1.8-0.1,3.5,0.6,4.4,1.6c1.3,1.4,4.6,4.9,8.6,9.3l14,15.4l5.6,6.1v-9.1c-5-5.5-24.8-28-28.5-31.8c-0.9-1-2.4-1.7-4.1-1.7
				C159.6,10,159.5,10,159.4,10"/>
		</defs>
		<clipPath id="SVGID_23_">
			<use xlink:href="#SVGID_22_"  style="overflow:visible;"/>
		</clipPath>
		
			<linearGradient id="SVGID_24_" gradientUnits="userSpaceOnUse" x1="-54.0301" y1="252.3774" x2="-46.3939" y2="252.3774" gradientTransform="matrix(14.8824 0 0 -14.8824 882.7249 3787.2754)">
			<stop  offset="0" style="stop-color:#A0A2A4"/>
			<stop  offset="0.1711" style="stop-color:#E2E3E4"/>
			<stop  offset="0.537" style="stop-color:#D9DBDC"/>
			<stop  offset="0.6598" style="stop-color:#E6E7E8"/>
			<stop  offset="0.7285" style="stop-color:#EAEBEC"/>
			<stop  offset="0.8097" style="stop-color:#C5C7C9"/>
			<stop  offset="0.8944" style="stop-color:#D9DBDC"/>
			<stop  offset="1" style="stop-color:#989A9D"/>
		</linearGradient>
		<rect x="78.6" y="10" class="st7" width="113.6" height="42.6"/>
	</g>
	<g>
		<defs>
			<rect id="SVGID_25_" x="16.5" y="10" width="244.6" height="183.8"/>
		</defs>
		<clipPath id="SVGID_26_">
			<use xlink:href="#SVGID_25_"  style="overflow:visible;"/>
		</clipPath>
		<path class="st8" d="M30.3,172.4c3.1,0,5.8-2.5,5.8-5.8c0-3.1-2.6-5.4-5.8-5.4h-6.5v11.2H30.3z M16.5,155.4c0-0.6,0.5-1.1,1.1-1.1
			h13.1c6.9,0,12.5,5.6,12.5,12.4c0,6.9-5.6,12.6-12.5,12.6h-7v13.1c0,0.6-0.5,1.1-1.1,1.1h-5.1c-0.6,0-1.1-0.5-1.1-1.1V155.4z"/>
		<path class="st8" d="M65.5,180.3l-5.5-12.2h-0.2l-5.4,12.2H65.5z M41.6,192.1l17.2-37.2c0.2-0.3,0.4-0.6,0.9-0.6h0.5
			c0.6,0,0.8,0.3,0.9,0.6l17,37.2c0.3,0.7-0.1,1.4-0.9,1.4h-4.8c-0.8,0-1.2-0.3-1.6-1.1l-2.7-6H51.6l-2.7,6
			c-0.2,0.6-0.7,1.1-1.6,1.1h-4.8C41.7,193.5,41.2,192.8,41.6,192.1"/>
		<path class="st8" d="M100.6,154c5.6,0,9.6,1.8,13.4,5.1c0.5,0.4,0.5,1.1,0.1,1.6l-3.4,3.5c-0.4,0.4-0.9,0.4-1.4,0
			c-2.3-2-5.4-3.3-8.5-3.3c-7.1,0-12.3,5.9-12.3,12.9c0,6.9,5.3,12.8,12.4,12.8c3.3,0,6.1-1.3,8.5-3.2c0.4-0.4,1.1-0.3,1.4,0
			l3.4,3.5c0.4,0.4,0.3,1.1-0.1,1.5c-3.8,3.7-8.5,5.4-13.4,5.4c-11,0-20-8.8-20-19.8C80.6,162.9,89.5,154,100.6,154"/>
		<path class="st8" d="M121.1,155.3c-0.1-0.6,0.1-0.7,0.6-0.7h1.3c0.3,0,0.6,0.3,0.7,0.6l9.3,32.4h0.1l9.7-33.1
			c0.1-0.3,0.5-0.5,0.8-0.5h0.1c0.3,0,0.7,0.2,0.8,0.5l9.8,33.1h0.1l9.2-32.4c0.1-0.3,0.3-0.6,0.7-0.6h1.3c0.5,0,0.7,0.2,0.6,0.7
			l-10.9,38.1c-0.1,0.2-0.3,0.4-0.5,0.4h-0.6c-0.3,0-0.4-0.1-0.5-0.4l-9.9-33.7h-0.1l-10,33.7c-0.1,0.3-0.3,0.4-0.5,0.4h-0.6
			c-0.2,0-0.4-0.2-0.5-0.4L121.1,155.3z"/>
		<path class="st8" d="M175.5,155.3c0-0.4,0.3-0.7,0.7-0.7h22.2c0.4,0,0.7,0.3,0.7,0.7v0.9c0,0.4-0.3,0.7-0.7,0.7h-20.2v15.3h17.5
			c0.4,0,0.7,0.3,0.7,0.7v0.9c0,0.4-0.3,0.7-0.7,0.7h-17.5v16.4h20.2c0.4,0,0.7,0.3,0.7,0.7v0.9c0,0.4-0.3,0.7-0.7,0.7h-22.2
			c-0.4,0-0.7-0.3-0.7-0.7V155.3z"/>
		<path class="st8" d="M207.6,188.1l0.5-0.7c0.4-0.4,0.8-0.6,1.2-0.2c0.6,0.5,4.6,4.3,10.2,4.3c5,0,9.3-3.4,9.3-7.4
			c0-4.9-4-7.1-10.7-9.4c-6.4-2.3-10.7-4.5-10.7-10.9c0-4.1,3.3-9.8,11.9-9.8c5.5,0,9.5,2.8,9.5,2.8c0.2,0.2,0.6,0.5,0.2,1.2
			c-0.2,0.2-0.3,0.5-0.4,0.7c-0.3,0.4-0.7,0.6-1.2,0.3c-0.2-0.1-3.9-2.6-8.1-2.6c-6.8,0-9.3,4.2-9.3,7.3c0,4.7,3.6,6.7,9.2,8.6
			c7.6,2.6,12.4,5.3,12.4,11.7c0,5.5-5.7,9.8-12.1,9.8c-6.6,0-11-3.9-11.7-4.5C207.4,189,207.2,188.7,207.6,188.1"/>
		<path class="st8" d="M247.2,157h-10.6c-0.5,0-0.7-0.3-0.7-0.8v-0.8c0-0.4,0.3-0.7,0.7-0.7h23.8c0.4,0,0.7,0.3,0.7,0.7v0.9
			c0,0.4-0.3,0.7-0.7,0.7h-10.6v35.6c0,0.4-0.3,0.7-0.9,0.7h-1c-0.4,0-0.7-0.3-0.7-0.7V157z"/>
	</g>
</g>
</svg>
