<?xml version="1.0" encoding="utf-8"?>
<!-- Generator: Adobe Illustrator 21.0.2, SVG Export Plug-In . SVG Version: 6.00 Build 0)  -->
<svg version="1.1" id="Layer_1" xmlns="http://www.w3.org/2000/svg" xmlns:xlink="http://www.w3.org/1999/xlink" x="0px" y="0px"
	 viewBox="0 0 272.5 78.1" style="enable-background:new 0 0 272.5 78.1;" xml:space="preserve">
<style type="text/css">
	.st0{fill:#282828;}
	.st1{fill:url(#SVGID_1_);}
	.st2{fill:url(#SVGID_2_);}
	.st3{fill:url(#SVGID_3_);}
	.st4{fill:url(#SVGID_4_);}
	.st5{fill:url(#SVGID_5_);}
	.st6{fill:url(#SVGID_6_);}
	.st7{fill:url(#SVGID_7_);}
	.st8{fill:url(#SVGID_8_);}
</style>
<g>
	<path class="st0" d="M100.2,27.9c0-0.4,0.3-0.7,0.7-0.7h8.6c4.5,0,8.2,3.7,8.2,8.1c0,4.6-3.7,8.3-8.2,8.3H105v8.6
		c0,0.4-0.3,0.7-0.7,0.7h-3.4c-0.4,0-0.7-0.3-0.7-0.7V27.9z M109.2,39.1c2.1,0,3.8-1.7,3.8-3.8c0-2-1.7-3.6-3.8-3.6H105v7.4H109.2z"
		/>
	<path class="st0" d="M116.7,52L128,27.6c0.1-0.2,0.3-0.4,0.6-0.4h0.4c0.4,0,0.5,0.2,0.6,0.4L140.8,52c0.2,0.5-0.1,0.9-0.6,0.9H137
		c-0.5,0-0.8-0.2-1.1-0.7l-1.8-3.9h-10.9l-1.8,3.9c-0.1,0.4-0.5,0.7-1.1,0.7h-3.2C116.7,53,116.5,52.5,116.7,52z M132.4,44.3l-3.6-8
		h-0.1l-3.6,8H132.4z"/>
	<path class="st0" d="M155.5,27c3.7,0,6.3,1.2,8.8,3.4c0.3,0.3,0.3,0.7,0,1l-2.2,2.3c-0.3,0.3-0.6,0.3-0.9,0
		c-1.5-1.3-3.6-2.1-5.6-2.1c-4.7,0-8.1,3.9-8.1,8.5c0,4.5,3.5,8.4,8.1,8.4c2.2,0,4-0.8,5.6-2.1c0.3-0.3,0.7-0.2,0.9,0l2.3,2.3
		c0.3,0.3,0.2,0.7,0,1c-2.5,2.4-5.6,3.5-8.8,3.5c-7.3,0-13.1-5.8-13.1-13.1S148.2,27,155.5,27z"/>
	<path class="st0" d="M169,27.8c-0.1-0.4,0.1-0.5,0.4-0.5h0.9c0.2,0,0.4,0.2,0.4,0.4l6.1,21.3c0,0,0.1,0,0.1,0l6.4-21.7
		c0.1-0.2,0.3-0.3,0.5-0.3h0.1c0.2,0,0.5,0.1,0.5,0.3l6.4,21.7c0,0,0,0,0.1,0l6.1-21.3c0-0.2,0.2-0.4,0.4-0.4h0.9
		c0.3,0,0.5,0.1,0.4,0.5l-7.2,25.1c0,0.1-0.2,0.3-0.3,0.3h-0.4c-0.2,0-0.3-0.1-0.4-0.3l-6.5-22.1h-0.1l-6.5,22.1
		c-0.1,0.2-0.2,0.3-0.4,0.3h-0.4c-0.1,0-0.3-0.1-0.3-0.3L169,27.8z"/>
	<path class="st0" d="M204.8,27.8c0-0.3,0.2-0.5,0.5-0.5h14.6c0.3,0,0.5,0.2,0.5,0.5v0.6c0,0.3-0.2,0.5-0.5,0.5h-13.3v10H218
		c0.3,0,0.5,0.2,0.5,0.5V40c0,0.3-0.2,0.5-0.5,0.5h-11.5v10.8h13.3c0.3,0,0.5,0.2,0.5,0.5v0.6c0,0.3-0.2,0.5-0.5,0.5h-14.6
		c-0.3,0-0.5-0.2-0.5-0.5V27.8z"/>
	<path class="st0" d="M225.9,49.4l0.3-0.4c0.3-0.3,0.5-0.4,0.8-0.1c0.4,0.3,3.1,2.8,6.7,2.8c3.3,0,6.1-2.2,6.1-4.9
		c0-3.2-2.7-4.7-7.1-6.2c-4.2-1.5-7-3-7-7.2c0-2.7,2.2-6.4,7.9-6.4c3.6,0,6.3,1.9,6.3,1.9c0.1,0.1,0.4,0.4,0.1,0.8
		c-0.1,0.1-0.2,0.3-0.3,0.5c-0.2,0.3-0.4,0.4-0.8,0.2c-0.1-0.1-2.5-1.7-5.3-1.7c-4.5,0-6.1,2.8-6.1,4.8c0,3.1,2.4,4.4,6,5.6
		c5,1.7,8.1,3.5,8.1,7.7c0,3.6-3.7,6.5-7.9,6.5c-4.3,0-7.2-2.5-7.7-3C225.8,50,225.6,49.8,225.9,49.4z"/>
	<path class="st0" d="M251.9,28.9H245c-0.4,0-0.5-0.2-0.5-0.5v-0.5c0-0.3,0.2-0.5,0.5-0.5h15.6c0.3,0,0.5,0.2,0.5,0.5v0.6
		c0,0.3-0.2,0.5-0.5,0.5h-7v23.4c0,0.3-0.2,0.5-0.6,0.5h-0.7c-0.3,0-0.5-0.2-0.5-0.5V28.9z"/>
	<g>
		<g>
			<linearGradient id="SVGID_1_" gradientUnits="userSpaceOnUse" x1="16.4546" y1="38.4924" x2="80.63" y2="38.4924">
				<stop  offset="2.528045e-02" style="stop-color:#414042"/>
				<stop  offset="0.3492" style="stop-color:#6D6E71"/>
				<stop  offset="0.7442" style="stop-color:#8B8D8F"/>
				<stop  offset="1" style="stop-color:#414042"/>
			</linearGradient>
			<path class="st1" d="M38.2,42.4c0,0-1.5,0.5-3,0.6c-0.1,0-0.2,0-0.3,0c0,0,0,0,0,0l0,0c-1,0-1.9-0.3-2.5-0.9
				c-0.7-0.8-2.6-2.8-4.8-5.2l-7.6-8.4l-3.4,1.3c2.8,3.1,14,15.8,16.1,18c0.5,0.6,1.4,1,2.5,0.9c0,0,0,0,0,0c0,0,0,0,0,0
				c0.1,0,0.2,0,0.3,0c1.4-0.1,3-0.6,3-0.6l42.3-16.2l-3.1-3.5L47.4,39.1L38.2,42.4z"/>
		</g>
		<g>
			<linearGradient id="SVGID_2_" gradientUnits="userSpaceOnUse" x1="16.4511" y1="46.2046" x2="80.6275" y2="46.2046">
				<stop  offset="2.528045e-02" style="stop-color:#414042"/>
				<stop  offset="0.3492" style="stop-color:#6D6E71"/>
				<stop  offset="0.7442" style="stop-color:#8B8D8F"/>
				<stop  offset="1" style="stop-color:#414042"/>
			</linearGradient>
			<path class="st2" d="M38.2,51.6c0,0-1.5,0.5-3,0.6c-0.1,0-0.2,0-0.3,0c0,0,0,0,0,0c0,0,0,0,0,0c-1,0-1.9-0.3-2.5-0.9
				c-0.7-0.8-2.6-2.8-4.8-5.2l-8.6-9.5l-2.4,0.9c2.8,3.1,14,15.3,16.1,17.5c0.5,0.6,1.4,1,2.5,0.9c0,0,0,0,0,0c0,0,0,0,0,0
				c0.1,0,0.2,0,0.3,0c1.4-0.1,3-0.6,3-0.6l42.3-15.7l-2.1-2.3l-31.1,11L38.2,51.6z"/>
			<linearGradient id="SVGID_3_" gradientUnits="userSpaceOnUse" x1="16.4514" y1="28.5632" x2="80.6322" y2="28.5632">
				<stop  offset="0" style="stop-color:#A1A3A6"/>
				<stop  offset="0.1711" style="stop-color:#E2E3E4"/>
				<stop  offset="0.537" style="stop-color:#DADBDC"/>
				<stop  offset="0.6598" style="stop-color:#E6E7E8"/>
				<stop  offset="0.7285" style="stop-color:#EBEBEC"/>
				<stop  offset="0.8097" style="stop-color:#C7C8CA"/>
				<stop  offset="0.8944" style="stop-color:#DADBDC"/>
				<stop  offset="1" style="stop-color:#999B9E"/>
			</linearGradient>
			<path class="st3" d="M58.9,21.8c0,0,1.5-0.5,3-0.6c0.1,0,0.2,0,0.3,0c0,0,0,0,0,0l0,0c1,0,1.9,0.3,2.5,0.9
				c0.7,0.8,2.6,2.8,4.8,5.2l11.1,12.2l0-3.1c-2.8-3.1-14-15.8-16.1-18c-0.5-0.6-1.4-1-2.5-0.9c0,0,0,0,0,0c0,0,0,0,0,0
				c-0.1,0-0.2,0-0.3,0c-1.4,0.1-3,0.6-3,0.6L16.5,33.9l0,3.6l33.2-12.3L58.9,21.8z"/>
		</g>
		<g>
			<linearGradient id="SVGID_4_" gradientUnits="userSpaceOnUse" x1="16.454" y1="53.4579" x2="80.6303" y2="53.4579">
				<stop  offset="2.528045e-02" style="stop-color:#414042"/>
				<stop  offset="0.3492" style="stop-color:#6D6E71"/>
				<stop  offset="0.7442" style="stop-color:#8B8D8F"/>
				<stop  offset="1" style="stop-color:#414042"/>
			</linearGradient>
			<path class="st4" d="M38.2,58.8c0,0-1.5,0.5-3,0.6c-0.1,0-0.2,0-0.3,0c0,0,0,0,0,0c0,0,0,0,0,0c-1,0-1.9-0.3-2.5-0.9
				c-0.7-0.8-2.6-2.8-4.8-5.2l-8.6-9.5l-2.4,0.9c2.8,3.1,14,15.3,16.1,17.5c0.5,0.6,1.4,1,2.5,0.9c0,0,0,0,0,0c0,0,0,0,0,0
				c0.1,0,0.2,0,0.3,0c1.4-0.1,3-0.6,3-0.6l42.3-15.7l-2.1-2.3l-31.1,11L38.2,58.8z"/>
			<linearGradient id="SVGID_5_" gradientUnits="userSpaceOnUse" x1="16.4542" y1="35.8166" x2="80.6351" y2="35.8166">
				<stop  offset="0" style="stop-color:#A1A3A6"/>
				<stop  offset="0.1711" style="stop-color:#E2E3E4"/>
				<stop  offset="0.537" style="stop-color:#DADBDC"/>
				<stop  offset="0.6598" style="stop-color:#E6E7E8"/>
				<stop  offset="0.7285" style="stop-color:#EBEBEC"/>
				<stop  offset="0.8097" style="stop-color:#C7C8CA"/>
				<stop  offset="0.8944" style="stop-color:#DADBDC"/>
				<stop  offset="1" style="stop-color:#999B9E"/>
			</linearGradient>
			<path class="st5" d="M58.9,29.1c0,0,1.5-0.5,3-0.6c0.1,0,0.2,0,0.3,0c0,0,0,0,0,0l0,0c1,0,1.9,0.3,2.5,0.9
				c0.7,0.8,2.6,2.8,4.8,5.2l11.1,12.2l0-3.1c-2.8-3.1-14-15.8-16.1-18c-0.5-0.6-1.4-1-2.5-0.9c0,0,0,0,0,0c0,0,0,0,0,0
				c-0.1,0-0.2,0-0.3,0c-1.4,0.1-3,0.6-3,0.6L16.5,41.1l0,3.6l33.2-12.3L58.9,29.1z"/>
		</g>
		<g>
			<linearGradient id="SVGID_6_" gradientUnits="userSpaceOnUse" x1="16.4497" y1="60.7112" x2="80.6261" y2="60.7112">
				<stop  offset="2.528045e-02" style="stop-color:#414042"/>
				<stop  offset="0.3492" style="stop-color:#6D6E71"/>
				<stop  offset="0.7442" style="stop-color:#8B8D8F"/>
				<stop  offset="1" style="stop-color:#414042"/>
			</linearGradient>
			<path class="st6" d="M38.2,66.1c0,0-1.5,0.5-3,0.6c-0.1,0-0.2,0-0.3,0c0,0,0,0,0,0c0,0,0,0,0,0c-1,0-1.9-0.3-2.5-0.9
				c-0.7-0.8-2.6-2.8-4.8-5.2L18.9,51l-2.4,0.9c2.8,3.1,14,15.3,16.1,17.5c0.5,0.6,1.4,1,2.5,0.9c0,0,0,0,0,0c0,0,0,0,0,0
				c0.1,0,0.2,0,0.3,0c1.4-0.1,3-0.6,3-0.6l42.3-15.7l-2.1-2.3l-31.1,11L38.2,66.1z"/>
			<linearGradient id="SVGID_7_" gradientUnits="userSpaceOnUse" x1="16.45" y1="43.0699" x2="80.6308" y2="43.0699">
				<stop  offset="0" style="stop-color:#A1A3A6"/>
				<stop  offset="0.1711" style="stop-color:#E2E3E4"/>
				<stop  offset="0.537" style="stop-color:#DADBDC"/>
				<stop  offset="0.6598" style="stop-color:#E6E7E8"/>
				<stop  offset="0.7285" style="stop-color:#EBEBEC"/>
				<stop  offset="0.8097" style="stop-color:#C7C8CA"/>
				<stop  offset="0.8944" style="stop-color:#DADBDC"/>
				<stop  offset="1" style="stop-color:#999B9E"/>
			</linearGradient>
			<path class="st7" d="M58.9,36.3c0,0,1.5-0.5,3-0.6c0.1,0,0.2,0,0.3,0c0,0,0,0,0,0l0,0c1,0,1.9,0.3,2.5,0.9
				c0.7,0.8,2.6,2.8,4.8,5.2l11.1,12.2l0-3.1c-2.8-3.1-14-15.8-16.1-18c-0.5-0.6-1.4-1-2.5-0.9c0,0,0,0,0,0c0,0,0,0,0,0
				c-0.1,0-0.2,0-0.3,0c-1.4,0.1-3,0.6-3,0.6L16.5,48.4l0,3.6l33.2-12.3L58.9,36.3z"/>
		</g>
		<linearGradient id="SVGID_8_" gradientUnits="userSpaceOnUse" x1="16.4546" y1="19.7886" x2="80.6336" y2="19.7886">
			<stop  offset="0" style="stop-color:#A1A3A6"/>
			<stop  offset="0.1711" style="stop-color:#E2E3E4"/>
			<stop  offset="0.537" style="stop-color:#DADBDC"/>
			<stop  offset="0.6598" style="stop-color:#E6E7E8"/>
			<stop  offset="0.7285" style="stop-color:#EBEBEC"/>
			<stop  offset="0.8097" style="stop-color:#C7C8CA"/>
			<stop  offset="0.8944" style="stop-color:#DADBDC"/>
			<stop  offset="1" style="stop-color:#999B9E"/>
		</linearGradient>
		<path class="st8" d="M58.9,14.1c0,0,1.5-0.5,3-0.6c0.1,0,0.2,0,0.3,0c0,0,0,0,0,0l0,0c1,0,1.9,0.3,2.5,0.9
			c0.7,0.8,2.6,2.8,4.8,5.2l7.9,8.7l3.1,3.5l0-5.1c-2.8-3.1-14-15.8-16.1-18c-0.5-0.6-1.4-1-2.5-0.9c0,0,0,0,0,0c0,0,0,0,0,0
			c-0.1,0-0.2,0-0.3,0c-1.4,0.1-3,0.6-3,0.6L16.5,24.1l0,5.6l33.2-12.3L58.9,14.1z"/>
	</g>
</g>
</svg>
