<?xml version="1.0" encoding="utf-8"?>
<!-- Generator: Adobe Illustrator 21.1.0, SVG Export Plug-In . SVG Version: 6.00 Build 0)  -->
<svg version="1.1" id="cw-bus_1_" xmlns="http://www.w3.org/2000/svg" xmlns:xlink="http://www.w3.org/1999/xlink" x="0px" y="0px"
	 viewBox="0 0 24 24" style="enable-background:new 0 0 24 24;" xml:space="preserve">
<style type="text/css">
	.st0{fill:#383838;}
</style>
<path id="cw-bus" class="st0" d="M18.7,21h-1.6c-0.5,0-0.9-0.4-0.9-0.9v-1.3H7.8v1.3c0,0.5-0.4,0.9-0.9,0.9H5.3
	c-0.5,0-0.9-0.4-0.9-0.9v-1.3h-1v-13C3.4,4.3,4.6,3,6.2,3h11.7c1.5,0,2.8,1.3,2.8,2.8v13h-1.1v1.3C19.6,20.6,19.2,21,18.7,21z
	 M17,18.8v1.3c0,0,0,0.1,0.1,0.1h1.6c0,0,0.1,0,0.1-0.1v-1.3H17z M5.2,18.8v1.3c0,0,0,0.1,0.1,0.1h1.6c0,0,0.1,0,0.1-0.1v-1.3H5.2z
	 M19.8,18v-5H4.2v5H19.8z M19.2,12.3h0.6V5.8c0-1.1-0.9-2-2-2H6.2c-1.1,0-2,0.9-2,2v6.5h0.6V5.9c0-0.8,0.7-1.5,1.5-1.5h11.5
	c0.8,0,1.5,0.7,1.5,1.5L19.2,12.3L19.2,12.3z M5.6,12.3h12.8V5.9c0-0.4-0.3-0.7-0.7-0.7H6.3c-0.4,0-0.7,0.3-0.7,0.7
	C5.6,5.9,5.6,12.3,5.6,12.3z M15.6,17.6h-7v-4.2h6.9v4.2H15.6z M9.4,16.8h5.3v-0.9H9.4V16.8z M9.4,15.1h5.3v-0.9H9.4V15.1z M18,17.2
	c-0.9,0-1.6-0.7-1.6-1.6S17.1,14,18,14s1.6,0.7,1.6,1.6C19.6,16.4,18.8,17.2,18,17.2z M18,14.7c-0.4,0-0.8,0.4-0.8,0.8
	s0.4,0.8,0.8,0.8s0.8-0.4,0.8-0.8S18.4,14.7,18,14.7z M6.1,17.2c-0.9,0-1.6-0.7-1.6-1.6S5.2,14,6.1,14s1.6,0.7,1.6,1.6
	C7.7,16.4,7,17.2,6.1,17.2z M6.1,14.7c-0.4,0-0.8,0.4-0.8,0.8s0.4,0.8,0.8,0.8s0.8-0.4,0.8-0.8S6.6,14.7,6.1,14.7z"/>
</svg>
