<?xml version="1.0" encoding="utf-8"?>
<!-- Generator: Adobe Illustrator 21.1.0, SVG Export Plug-In . SVG Version: 6.00 Build 0)  -->
<svg version="1.1" id="Layer_1" xmlns="http://www.w3.org/2000/svg" xmlns:xlink="http://www.w3.org/1999/xlink" x="0px" y="0px"
	 viewBox="0 0 32 17" style="enable-background:new 0 0 32 17;" xml:space="preserve">
<style type="text/css">
	.st0{fill:none;}
	.st1{fill:#383838;}
</style>
<g transform="translate(0 -8)">
	<rect class="st0" width="32" height="32"/>
	<g transform="translate(0 7)">
		<path class="st1" d="M16.8,4.8c0.8,0,1.5-0.7,1.5-1.5s-0.7-1.5-1.5-1.5c-0.8,0-1.5,0.7-1.5,1.5S16,4.8,16.8,4.8 M19.1,10.4
			c-0.4-0.1-0.8,0.1-0.9,0.4l-1.1,5.4c0,0.1,0,0.2,0,0.2c-0.1,0-0.2,0.1-0.3,0.2c-0.1-0.1-0.1-0.1-0.2-0.1c0-0.1,0-0.1,0-0.2
			l-0.8-5.5c-0.1-0.3-0.4-0.6-0.9-0.5c-0.4,0-0.7,0.3-0.7,0.7l0.8,5.5c0,0.1,0,0.1,0.1,0.2c-0.2,0.2-0.4,0.4-0.5,0.7h2.6H19
			c-0.1-0.3-0.2-0.5-0.4-0.7c0-0.1,0.1-0.1,0.1-0.2l1.1-5.4C19.8,10.8,19.6,10.5,19.1,10.4 M3.2,4.1c0.8,0,1.5-0.7,1.5-1.5
			c0-0.8-0.7-1.5-1.5-1.5S1.7,1.7,1.7,2.6C1.7,3.4,2.4,4.1,3.2,4.1"/>
		<polygon class="st1" points="0,4.4 0,12.3 0,12.8 0,17.5 0.6,17.5 0.6,12.8 0.6,12.8 5.1,12.8 5.1,17.5 5.7,17.5 5.7,12.8 
			5.7,12.3 5.1,12.3 0.6,12.3 0.6,4.4 		"/>
		<path class="st1" d="M29,4.3c0.8,0,1.5-0.7,1.5-1.5S29.9,1.3,29,1.3s-1.5,0.7-1.5,1.5S28.2,4.3,29,4.3"/>
		<polygon class="st1" points="30.6,4.4 30.6,12.3 26.1,12.3 25.5,12.3 25.5,12.8 25.5,17.5 26.1,17.5 26.1,12.8 30.6,12.8 
			30.6,12.8 30.6,17.5 31.2,17.5 31.2,4.4 		"/>
		<path class="st1" d="M29.9,10.4c-0.1-1,0.1-1.8,0.3-3.2c0.2-1.4,0.3-1.6,0.1-2l-0.4-0.7l-1,0.6l-0.8,0.5L28,5.1l-0.3,0.5
			c0,0,0,0.1,0,0.1l-0.1,0.8l-0.7,0.4c-0.1,0.1-0.1,0.2-0.1,0.4l-0.1,0.1c-0.2,0.1-0.2,0.4,0,0.7c0.2,0.3,0.4,0.4,0.6,0.3l0.2-0.1
			l-0.2,1.5l-0.4,0.8c0,0-0.9,0.1-1.4,0c-0.1,0-0.2,0-0.3,0V10V8.4h-3.9l0,0h-1V8.3c0-1-0.5-3.4-1.6-3.4h-1L17.1,6l-0.4-0.6
			l-0.5,0.5l-0.3-1c0,0-0.9,0-0.9,0c-0.5,0-0.7,0.6-0.9,1c-0.1,0.2-0.3,0.3-0.3,0.5c-0.1,0.5-1.3,1.2-1.3,1.6c0,0.1,0,0.2,0.1,0.3
			h-2.7v0H8.8c1.3,0,1,0,0.2-0.5C8.2,7.4,8.8,7.6,8.1,7.7c-0.6,0.1-1,0-1.6,0c-0.6,0-0.9-0.1-1.4-0.4c-0.5-0.3-0.7-1-0.7-1L3.9,5.2
			L3.8,5.6L3,5L2,4.4L1.6,4.9c-0.3,0.4-0.2,0.6-0.2,2c0,1.4,0.1,2.2-0.2,3.2C0.9,11,0.8,11.6,1.3,12h4.6c0.2,0,0.4,0.1,0.4,0.3
			c0,0,0,0,0,0.1c0.2,0.4,0,1.9-0.1,2.6c-0.1,0.7-0.3,1.7-0.3,1.7s0,0.1,0.1,0.3c0,0.1,0,0.3,0.1,0.4c0.2,0.1,0.2,0.1,0.4,0.1
			c0.1,0,0.3,0,0.5,0v0h1.5V10h1.2h0.3h11.1h0.1h2.3v0.6c0,0-0.1,0-0.2,0c-0.3,0-0.5,0.3-0.4,0.5l0.6,3.5v1.7
			c-0.2,0.1-0.2,0.1-0.5,0.3c-0.4,0.2-0.4,0.1-0.5,0.1c-0.2,0-0.2,0.3-0.2,0.3v0.4l1.3,0h1.5V12h4.7C30.1,11.7,30,11.1,29.9,10.4
			L29.9,10.4z M7,10v0.6c-0.5-0.1-1-0.1-1.4-0.1c-0.6-0.1-1.4-0.3-1.4-0.3L4.1,9.8c0,0-0.5-2.2,0-1.8c0.6,0.4,0.5,0.4,1.2,0.4
			c0.8,0,0.9,0,1.5,0c0.1,0,0.1,0,0.2,0V10z M17.2,8.4h-1c0,0,0,0,0-0.1c0-0.1,0.1-0.7,0.2-1.3c0.1-0.6,0.1-0.7,0.1-0.7
			c0-0.1-0.1-0.3-0.1-0.4c0-0.1,0.2-0.3,0.3-0.3C16.9,5.7,17,5.9,17,6c0,0.1-0.1,0.2-0.2,0.4c0,0.1,0.4,1.2,0.5,1.6
			C17.4,8.2,17.3,8.3,17.2,8.4L17.2,8.4z"/>
	</g>
</g>
</svg>
