<?xml version="1.0" encoding="utf-8"?>
<!-- Generator: Adobe Illustrator 21.1.0, SVG Export Plug-In . SVG Version: 6.00 Build 0)  -->
<svg version="1.1" id="Layer_1" xmlns="http://www.w3.org/2000/svg" xmlns:xlink="http://www.w3.org/1999/xlink" x="0px" y="0px"
	 viewBox="0 0 31 18" style="enable-background:new 0 0 31 18;" xml:space="preserve">
<style type="text/css">
	.st0{fill:none;}
	.st1{fill:#383838;}
</style>
<g transform="translate(-1 -7)">
	<rect class="st0" width="32" height="32"/>
	<path class="st1" d="M25.3,13c-0.5,0-0.9,0.1-1.3,0.2c-0.5-2-1-4.2-1-5.7c0-0.2-0.2-0.4-0.4-0.4h-2.7c-0.2,0-0.4,0.2-0.4,0.4
		c0,0.2,0.2,0.4,0.4,0.4H22c0.1,0.8,0.2,1.7,0.4,2.6h-11l-0.7-1.4h1.5c0.2,0,0.4-0.2,0.4-0.4c0-0.2-0.2-0.4-0.4-0.4H7.3
		C7,8.2,6.8,8.4,6.8,8.7c0,0.2,0.2,0.4,0.4,0.4h2.5l0.9,1.8l-1.3,2.6C8.6,13.2,7.8,13,7,13c-3.3,0-6,2.7-6,6c0,3.3,2.7,6,6,6
		c3.1,0,5.7-2.4,6-5.5h2.6h0c0.1,0,0.2-0.1,0.3-0.1l6.8-7.5c0.1,0.6,0.3,1.1,0.4,1.7c-2.2,0.9-3.8,3-3.8,5.6c0,3.3,2.7,6,6,6
		s6-2.7,6-6C31.2,15.7,28.5,13,25.3,13L25.3,13z M7,24.1c-2.8,0-5.1-2.3-5.1-5.1c0-2.8,2.3-5.1,5.1-5.1c0.7,0,1.4,0.1,2,0.4L7,17.9
		c0,0,0,0-0.1,0c-0.6,0-1.1,0.5-1.1,1.1C5.9,19.5,6.4,20,7,20c0.4,0,0.8-0.3,1-0.6h4.1C11.9,22,9.7,24.1,7,24.1L7,24.1z M7.9,18.5
		c0-0.1-0.1-0.2-0.1-0.2l1.9-3.7c1.3,0.8,2.2,2.3,2.4,3.9H7.9z M12.9,18.5c-0.1-2-1.2-3.7-2.8-4.7l1.1-2l3.7,6.7H12.9z M15.6,18.2
		l-3.8-6.9h9.9L15.6,18.2z M25.3,24.1c-2.8,0-5.1-2.3-5.1-5.1c0-2.1,1.3-4,3.2-4.7c0.5,1.6,0.9,3.1,1.2,4c-0.2,0.2-0.3,0.5-0.3,0.8
		c0,0.6,0.5,1.1,1.1,1.1s1.1-0.5,1.1-1.1c0-0.5-0.4-1-1-1.1c-0.3-0.9-0.8-2.3-1.2-3.9c0.4-0.1,0.7-0.1,1.1-0.1
		c2.8,0,5.1,2.3,5.1,5.1C30.4,21.8,28.1,24.1,25.3,24.1L25.3,24.1z"/>
</g>
</svg>
