<?xml version="1.0" encoding="utf-8"?>
<!-- Generator: Adobe Illustrator 21.1.0, SVG Export Plug-In . SVG Version: 6.00 Build 0)  -->
<svg version="1.1" id="Layer_1" xmlns="http://www.w3.org/2000/svg" xmlns:xlink="http://www.w3.org/1999/xlink" x="0px" y="0px"
	 viewBox="0 0 29 29" style="enable-background:new 0 0 29 29;" xml:space="preserve">
<style type="text/css">
	.st0{fill:none;}
	.st1{fill:#383838;}
</style>
<g transform="translate(-2 -2)">
	<rect class="st0" width="32" height="32"/>
	<g transform="translate(2 2)">
		<path class="st1" d="M13.9,0v2.7H9.2v6.2H3v4.8H0v0.7h3v4.8h6.2v6.2h4.8v3.3h0.7v-3.3h4.8v-6.2h6.2v-4.8h3v-0.7h-3V8.9h-6.2V2.7
			h-4.8V0H13.9z M3.7,9.7h6.2V3.5h4v10.2H3.7V9.7z M14.7,3.5h4v6.2h6.2v4H14.7V3.5z M14.7,14.4h10.2v4h-6.2v6.2h-4V14.4z M3.7,14.4
			h10.2v10.2h-4v-6.2H3.7V14.4z"/>
		<path class="st1" d="M22.2,8.4c0.1,0,0.1,0,0.2,0c0.5,0,1-0.3,1.5-0.6c0.3,0.3,0.5,0.5,0.7,0.5c0.1,0,0.3-0.1,0.4-0.2
			c0.2-0.2,0.4-0.6-0.1-1.4c-0.3-0.5-0.7-1.1-1.3-1.7c-0.9-0.9-2-1.6-2.6-1.6c-0.3,0-0.4,0.1-0.5,0.2c-0.1,0.1-0.2,0.3-0.2,0.4
			c0,0.3,0.2,0.5,0.5,0.7c-0.4,0.4-0.6,0.9-0.6,1.5c-0.1,0.6,0.1,1.2,0.6,1.6C21.2,8.2,21.7,8.4,22.2,8.4 M23.1,5.5
			c0.7,0.7,1.1,1.3,1.3,1.7c-0.1-0.1-0.2-0.2-0.3-0.3C23.8,6.5,23.5,6,23.1,5.5c-0.5-0.4-1-0.7-1.4-1c-0.1-0.1-0.2-0.2-0.3-0.3
			C21.8,4.4,22.5,4.8,23.1,5.5 M21,6.3c0-0.4,0.2-0.8,0.5-1.1c0.3,0.2,0.7,0.5,1,0.9c0.4,0.4,0.7,0.7,0.9,1.1
			c-0.3,0.3-0.7,0.4-1.1,0.5c-0.4,0-0.8-0.1-1-0.3C21.1,7,21,6.7,21,6.3 M24.6,20.2c-0.3,0-0.5,0.2-0.8,0.5
			c-0.9-0.8-2.3-0.9-3.1-0.1c-0.8,0.8-0.7,2.1,0.1,3.1c-0.3,0.2-0.5,0.4-0.5,0.7c0,0.2,0,0.3,0.2,0.4c0.1,0.1,0.3,0.2,0.5,0.2
			c0.6,0,1.6-0.6,2.6-1.6c0.8-0.8,2-2.4,1.4-3.1C24.8,20.3,24.7,20.2,24.6,20.2 M21.2,21.2c0.5-0.5,1.4-0.4,2.1,0.1
			c-0.2,0.3-0.5,0.7-0.9,1c-0.4,0.4-0.7,0.7-1.1,0.9C20.8,22.6,20.7,21.7,21.2,21.2 M23.1,22.9c-0.7,0.7-1.3,1.1-1.7,1.3
			c0.1-0.1,0.2-0.2,0.3-0.3C22.1,23.7,22.5,23.3,23.1,22.9c0.4-0.5,0.7-1,1-1.4c0.1-0.1,0.2-0.2,0.3-0.3
			C24.2,21.6,23.8,22.2,23.1,22.9 M7.8,20.5c-0.8-0.8-2.1-0.7-3.1,0.1c-0.3-0.3-0.5-0.5-0.7-0.5c-0.1,0-0.3,0.1-0.4,0.2
			C2.9,21,4.1,22.6,5,23.4c0.9,0.9,2,1.6,2.6,1.6c0.3,0,0.4-0.1,0.5-0.2c0.1-0.1,0.2-0.3,0.2-0.4c0-0.3-0.2-0.5-0.5-0.7
			C8.5,22.7,8.6,21.3,7.8,20.5 M5.5,22.9c-0.7-0.7-1.1-1.3-1.3-1.7c0.1,0.1,0.2,0.2,0.3,0.3C4.8,21.9,5.1,22.3,5.5,22.9
			c0.5,0.4,1,0.7,1.4,1C7,24,7.1,24.1,7.2,24.1C6.8,24,6.1,23.5,5.5,22.9 M7.1,23.2c-0.3-0.2-0.7-0.5-1-0.9
			c-0.4-0.4-0.7-0.8-0.9-1.1c0.7-0.6,1.6-0.7,2.1-0.1C7.8,21.6,7.7,22.5,7.1,23.2 M4.1,8.1c0.3,0,0.5-0.2,0.8-0.5
			C5.3,8,5.9,8.3,6.5,8.3c0.5,0,1-0.2,1.4-0.6c0.8-0.8,0.7-2.1-0.1-3.1c0.3-0.2,0.5-0.4,0.5-0.7c0-0.2,0-0.3-0.2-0.4
			C8.1,3.4,7.9,3.3,7.6,3.3C7,3.3,6,3.9,5,4.9C4.2,5.7,3,7.3,3.7,8C3.8,8.1,3.9,8.1,4.1,8.1 M7.4,7.2c-0.3,0.3-0.6,0.4-1,0.3
			C6,7.5,5.6,7.3,5.3,7c0.2-0.3,0.5-0.7,0.9-1c0.4-0.4,0.7-0.7,1.1-0.9C7.8,5.8,7.9,6.7,7.4,7.2 M5.6,5.4c0.7-0.7,1.3-1.1,1.7-1.3
			C7.2,4.2,7.1,4.3,6.9,4.4C6.6,4.7,6.1,5,5.6,5.4c-0.4,0.5-0.7,1-1,1.4C4.5,6.9,4.4,7,4.3,7.1C4.5,6.7,4.8,6.1,5.6,5.4"/>
	</g>
</g>
</svg>
