<?xml version="1.0" encoding="utf-8"?>
<!-- Generator: Adobe Illustrator 21.1.0, SVG Export Plug-In . SVG Version: 6.00 Build 0)  -->
<svg version="1.1" id="Layer_1" xmlns="http://www.w3.org/2000/svg" xmlns:xlink="http://www.w3.org/1999/xlink" x="0px" y="0px"
	 viewBox="0 0 14 30" style="enable-background:new 0 0 14 30;" xml:space="preserve">
<style type="text/css">
	.st0{fill:#383838;}
</style>
<g transform="translate(0 -1)">
	<path class="st0" d="M13.8,26.2l-2.3-7.6h1.3c0.2,0,0.3-0.1,0.3-0.3c0-0.2-0.1-0.3-0.3-0.3h-1.5L8.5,8.6C9,8.1,9.3,7.5,9.3,6.8
		c0-0.9-0.5-1.7-1.3-2.2V1.3C8.1,1.1,7.9,1,7.8,1H6.1C5.9,1,5.8,1.1,5.8,1.3v3.2C4.9,4.9,4.3,5.8,4.3,6.8c0,0.8,0.4,1.5,1,2L2.5,18
		H1c-0.2,0-0.3,0.1-0.3,0.3c0,0.2,0.1,0.3,0.3,0.3h1.3L0,26.2c0,0,0,0,0,0c0,0,0,0,0,0s0,0,0,0l0,4.4C0,30.9,0.1,31,0.3,31
		c0,0,0,0,0,0c0.1,0,0.3-0.1,0.3-0.2l1.1-4l0,0l2.5-8.2h2.4v0.8c0,0.2,0.1,0.3,0.3,0.3s0.3-0.1,0.3-0.3v-0.8h2.5l2.5,8.1
		c0,0,0,0.1,0,0.1l1.1,4c0,0.1,0.2,0.2,0.3,0.2c0,0,0,0,0,0c0.1,0,0.3-0.1,0.3-0.3l0-4.3C13.9,26.3,13.9,26.3,13.8,26.2L13.8,26.2z
		 M12.8,26.9l0.5-0.2L12.8,26.9z M6.4,1.6h1.1v2.8C7.3,4.3,7.1,4.3,6.8,4.3c-0.2,0-0.3,0-0.5,0V1.6z M4.9,6.8c0-1,0.9-1.9,1.9-1.9
		s1.9,0.9,1.9,1.9c0,1.1-0.9,1.9-1.9,1.9C5.8,8.7,4.9,7.8,4.9,6.8L4.9,6.8z M0.6,28.5l0-1.8l0.5,0.2L0.6,28.5z M1.2,26.3l-0.6-0.2
		l2.3-7.5h0.6L1.2,26.3z M3.8,18H3.1l2.7-9C6,9.1,6.2,9.2,6.4,9.2L3.8,18z M7.2,18v-0.8C7.2,17.1,7,17,6.9,17
		c-0.2,0-0.3,0.1-0.3,0.3V18H4.4l2.5-8.4L9.5,18H7.2z M7.4,9.2C7.6,9.1,7.8,9.1,8,9l2.7,9.1h-0.6L7.4,9.2z M10.3,18.6h0.6l2.2,7.5
		l-0.6,0.2L10.3,18.6z M12.8,26.9l0.5-0.2l0,1.8L12.8,26.9z"/>
	<path class="st0" d="M6.8,7.9c0.6,0,1.1-0.5,1.1-1.1c0-0.6-0.5-1.1-1.1-1.1S5.7,6.2,5.7,6.8C5.7,7.4,6.2,7.9,6.8,7.9 M6.8,6.3
		c0.3,0,0.5,0.2,0.5,0.5S7.1,7.3,6.8,7.3C6.6,7.3,6.3,7,6.3,6.8C6.3,6.5,6.6,6.3,6.8,6.3"/>
</g>
</svg>
