<?xml version="1.0" encoding="utf-8"?>
<!-- Generator: Adobe Illustrator 21.1.0, SVG Export Plug-In . SVG Version: 6.00 Build 0)  -->
<svg version="1.1" id="cw-light-rail" xmlns="http://www.w3.org/2000/svg" xmlns:xlink="http://www.w3.org/1999/xlink" x="0px"
	 y="0px" viewBox="0 0 24 24" style="enable-background:new 0 0 24 24;" xml:space="preserve">
<style type="text/css">
	.st0{fill:#383838;}
</style>
<path id="light-rail" class="st0" d="M17.7,22.5l-2.3-3.9l0.7-0.4l2.3,3.9L17.7,22.5z M6.3,22.5l-0.7-0.4l2.3-3.9l0.7,0.4L6.3,22.5z
	 M19.2,17.8H4.8V7.9c0-2.5,2-4.5,4.5-4.5h5.4c2.5,0,4.5,2,4.5,4.5V17.8z M5.6,17h12.8V7.9c0-2.1-1.7-3.7-3.7-3.7H9.3
	c-2.1,0-3.7,1.7-3.7,3.7V17z M16.4,15.6c-0.8,0-1.4-0.6-1.4-1.4s0.6-1.4,1.4-1.4c0.8,0,1.4,0.6,1.4,1.4S17.1,15.6,16.4,15.6z
	 M16.4,13.6c-0.3,0-0.6,0.3-0.6,0.6s0.3,0.6,0.6,0.6c0.3,0,0.6-0.3,0.6-0.6S16.7,13.6,16.4,13.6z M7.6,15.6c-0.8,0-1.4-0.6-1.4-1.4
	s0.6-1.4,1.4-1.4S9,13.4,9,14.2S8.3,15.6,7.6,15.6z M7.6,13.6c-0.3,0-0.6,0.3-0.6,0.6s0.3,0.6,0.6,0.6c0.3,0,0.6-0.3,0.6-0.6
	S7.9,13.6,7.6,13.6z M17.3,11.7H6.7V8c0-1.3,1-2.3,2.3-2.3h6c1.3,0,2.3,1,2.3,2.3V11.7z M7.5,10.9h9.1V8c0-0.9-0.7-1.5-1.5-1.5H9
	C8.1,6.5,7.5,7.2,7.5,8V10.9z M15.3,2.3H8.6V1.5h6.7V2.3z"/>
</svg>
