<?xml version="1.0" encoding="utf-8"?>
<!-- Generator: Adobe Illustrator 21.1.0, SVG Export Plug-In . SVG Version: 6.00 Build 0)  -->
<svg version="1.1" id="Layer_1" xmlns="http://www.w3.org/2000/svg" xmlns:xlink="http://www.w3.org/1999/xlink" x="0px" y="0px"
	 viewBox="0 0 19 24" style="enable-background:new 0 0 19 24;" xml:space="preserve">
<style type="text/css">
	.st0{fill:none;}
	.st1{fill:#383838;}
</style>
<g transform="translate(-7 -4)">
	<rect class="st0" width="32" height="32"/>
	<g transform="translate(7 4)">
		<path class="st1" d="M9.3,24l-0.2-0.3C7.5,22.1,0,14,0,9.4C0,4.2,4.2,0,9.3,0s9.3,4.2,9.3,9.4c0,4.5-7.6,12.7-9.1,14.3L9.3,24z
			 M9.3,0.7c-4.8,0-8.6,3.9-8.6,8.7c0,4.1,7,11.8,8.6,13.6c1.6-1.7,8.7-9.5,8.7-13.6C18,4.6,14.1,0.7,9.3,0.7L9.3,0.7z"/>
		<path class="st1" d="M9.3,12c-2.1,0-3.7-1.7-3.7-3.7c0-2.1,1.7-3.7,3.7-3.7S13,6.3,13,8.3C13,10.4,11.4,12,9.3,12 M9.3,5.3
			c-1.7,0-3,1.4-3,3s1.4,3,3,3s3-1.4,3-3S11,5.3,9.3,5.3"/>
	</g>
</g>
</svg>
