<?xml version="1.0" encoding="utf-8"?>
<!-- Generator: Adobe Illustrator 21.1.0, SVG Export Plug-In . SVG Version: 6.00 Build 0)  -->
<svg version="1.1" id="cw-parking_1_" xmlns="http://www.w3.org/2000/svg" xmlns:xlink="http://www.w3.org/1999/xlink" x="0px"
	 y="0px" viewBox="0 0 24 24" style="enable-background:new 0 0 24 24;" xml:space="preserve">
<style type="text/css">
	.st0{fill:#383838;}
</style>
<path id="cw-parking" class="st0" d="M18.4,20.5H5.6c-1.2,0-2.1-0.9-2.1-2.1V5.6c0-1.2,0.9-2.1,2.1-2.1h12.8c1.2,0,2.1,0.9,2.1,2.1
	v12.8C20.5,19.6,19.6,20.5,18.4,20.5z M5.6,4.3c-0.7,0-1.3,0.6-1.3,1.3v12.8c0,0.7,0.6,1.3,1.3,1.3h12.8c0.7,0,1.3-0.6,1.3-1.3V5.6
	c0-0.7-0.6-1.3-1.3-1.3H5.6z M10.6,17.6H7.7c-0.2,0-0.4-0.2-0.4-0.4V6.3c0-0.1,0-0.2,0.1-0.3C7.5,6,7.6,6,7.7,6c0,0,0,0,0,0l3.8,0
	c1.5,0,3.7,0,5,1.3c0.7,0.7,1,1.7,1,2.9c0,1.2-0.3,2.1-1,2.8c-1.4,1.3-3.7,1.3-5.2,1.3c-0.1,0-0.2,0-0.3,0v3
	C11,17.5,10.9,17.6,10.6,17.6z M8.1,16.8h2.1v-3c0-0.2,0.2-0.4,0.4-0.4l0.2,0c0.2,0,0.3,0,0.5,0c1.4,0,3.6,0,4.7-1.1
	c0.5-0.5,0.8-1.3,0.8-2.2c0-1-0.3-1.8-0.8-2.3c-1.1-1.1-3-1.1-4.4-1l-3.4,0V16.8z M10.8,11.6c0,0-0.1,0-0.1,0l-0.1,0
	c-0.2,0-0.4-0.2-0.4-0.4v-2c0-0.2,0.2-0.4,0.4-0.4l0.1,0c1.7,0,2.7,0.2,3.2,0.7c0.2,0.2,0.3,0.4,0.3,0.7s-0.1,0.5-0.3,0.7
	C13.5,11.3,12.4,11.6,10.8,11.6z M11,9.5v1.3c1.7,0,2.2-0.4,2.3-0.5c0.1-0.1,0.1-0.1,0.1-0.2s0-0.1-0.1-0.2
	C13.3,9.9,12.8,9.6,11,9.5z"/>
</svg>
