<?xml version="1.0" encoding="utf-8"?>
<!-- Generator: Adobe Illustrator 21.1.0, SVG Export Plug-In . SVG Version: 6.00 Build 0)  -->
<svg version="1.1" id="cw-boat" xmlns="http://www.w3.org/2000/svg" xmlns:xlink="http://www.w3.org/1999/xlink" x="0px" y="0px"
	 viewBox="0 0 24 24" style="enable-background:new 0 0 24 24;" xml:space="preserve">
<style type="text/css">
	.st0{fill:#383838;}
</style>
<g id="cw-boat_1_">
	<path class="st0" d="M18.2,22c-0.9,0-1.4-0.4-1.8-0.7c-0.4-0.3-0.7-0.5-1.3-0.5c-0.6,0-0.9,0.2-1.3,0.5C13.4,21.6,12.9,22,12,22
		c-0.9,0-1.4-0.4-1.8-0.7c-0.4-0.3-0.7-0.5-1.3-0.5c-0.6,0-0.9,0.2-1.3,0.5C7.2,21.6,6.7,22,5.8,22c-0.9,0-1.4-0.4-1.8-0.7
		c-0.4-0.3-0.7-0.5-1.3-0.5c-0.2,0-0.4-0.2-0.4-0.4c0-0.2,0.2-0.4,0.4-0.4c0.9,0,1.4,0.4,1.8,0.7c0.4,0.3,0.7,0.5,1.3,0.5
		c0.6,0,0.9-0.2,1.3-0.5c0.4-0.3,0.9-0.7,1.8-0.7c0.9,0,1.4,0.4,1.8,0.7c0.4,0.3,0.7,0.5,1.3,0.5c0.6,0,0.9-0.2,1.3-0.5
		c0.4-0.3,0.9-0.7,1.8-0.7c0.9,0,1.4,0.4,1.8,0.7c0.4,0.3,0.7,0.5,1.3,0.5c0.6,0,0.9-0.2,1.3-0.5c0.4-0.3,0.9-0.7,1.8-0.7
		c0.2,0,0.4,0.2,0.4,0.4c0,0.2-0.2,0.4-0.4,0.4c-0.6,0-0.9,0.2-1.3,0.5C19.6,21.6,19.1,22,18.2,22z M6.2,19.7
		c-0.2,0-0.3-0.1-0.4-0.3l-1.4-4.3c-0.1-0.2,0-0.3,0.1-0.4l1.4-1v-6c0-0.2,0.2-0.4,0.4-0.4h1.8V4.4C8.1,4.2,8.3,4,8.5,4h2.1
		C10.8,4,11,4.2,11,4.4v2.8h2V4.4C13,4.2,13.2,4,13.4,4h2.1c0.2,0,0.4,0.2,0.4,0.4v2.8h1.8c0.2,0,0.4,0.2,0.4,0.4v6l1.4,1
		c0.1,0.1,0.2,0.3,0.1,0.4l-1.4,4.3c-0.1,0.2-0.3,0.3-0.5,0.3c-0.2-0.1-0.3-0.3-0.3-0.5l1-3l-6-3.8v7c0,0.2-0.2,0.4-0.4,0.4
		s-0.4-0.2-0.4-0.4v-7l-6,3.8l1,3.1c0.1,0.2,0,0.4-0.3,0.5C6.3,19.7,6.2,19.7,6.2,19.7z M12.2,11.2l6.5,4.1l0.1-0.2L12,10.2
		l-6.8,4.9l0.1,0.2l6.5-4.1c0.1,0,0.1-0.1,0.2-0.1c0,0,0,0,0,0C12.1,11.1,12.2,11.1,12.2,11.2z M6.7,8v5l5.1-3.7
		c0.1-0.1,0.3-0.1,0.5,0l5.1,3.7V8H6.7z M13.8,7.2h1.3V4.8h-1.3V7.2z M8.9,7.2h1.3V4.8H8.9V7.2z"/>
</g>
</svg>
