<?xml version="1.0" encoding="utf-8"?>
<!-- Generator: Adobe Illustrator 21.1.0, SVG Export Plug-In . SVG Version: 6.00 Build 0)  -->
<svg version="1.1" id="cw-building" xmlns="http://www.w3.org/2000/svg" xmlns:xlink="http://www.w3.org/1999/xlink" x="0px"
	 y="0px" viewBox="0 0 12 14" style="enable-background:new 0 0 12 14;" xml:space="preserve">
<style type="text/css">
	.st0{fill:#383838;}
</style>
<g>
	<path class="st0" d="M11.2,1.6H0.8V1.2C0.8,1,1,0.8,1.2,0.8h9.7c0.2,0,0.3,0.2,0.3,0.4L11.2,1.6L11.2,1.6z M11.2,5.1H6.4V2.4h4.8
		C11.2,2.4,11.2,5.1,11.2,5.1z M11.3,8.4c0,0.2-0.2,0.4-0.4,0.4H1.2C1,8.8,0.8,8.6,0.8,8.4V5.8h10.5L11.3,8.4L11.3,8.4z M10.3,10
		L6,10.7L1.7,10V9.5h8.7L10.3,10L10.3,10z M9.8,11.9H2.2L2.7,11L6,11.5h0.1L9.3,11L9.8,11.9z M0.8,2.4h4.8v2.7H0.8V2.4z M10.8,0H1.2
		C0.5,0,0,0.5,0,1.2v7.2c0,0.6,0.4,1,0.9,1.1v0.9c0,0.2,0.1,0.3,0.3,0.4l0.6,0.1l-1.3,2.6c-0.1,0.2,0,0.4,0.2,0.5s0.4,0,0.5-0.2
		l0.6-1.1h8.4l0.6,1.1c0.1,0.2,0.3,0.3,0.5,0.2s0.3-0.3,0.2-0.5l-1.3-2.6l0.6-0.1c0.2,0,0.3-0.2,0.3-0.4V9.5C11.6,9.4,12,8.9,12,8.3
		V1.2C12,0.5,11.5,0,10.8,0"/>
	<path class="st0" d="M2.7,7.1c0.1,0,0.2,0.1,0.2,0.2S2.8,7.5,2.7,7.5S2.5,7.4,2.5,7.3S2.6,7.1,2.7,7.1 M2.7,8.3c0.5,0,1-0.4,1-1
		c0-0.5-0.4-1-1-1s-1,0.4-1,1C1.8,7.9,2.2,8.3,2.7,8.3"/>
	<path class="st0" d="M9.3,7.1c0.1,0,0.2,0.1,0.2,0.2S9.4,7.5,9.3,7.5c-0.1,0-0.2-0.1-0.2-0.2S9.2,7.1,9.3,7.1 M9.3,8.3
		c0.5,0,1-0.4,1-1c0-0.5-0.4-1-1-1c-0.5,0-1,0.4-1,1S8.8,8.3,9.3,8.3"/>
</g>
</svg>
