<?xml version="1.0" encoding="utf-8"?>
<!-- Generator: Adobe Illustrator 21.1.0, SVG Export Plug-In . SVG Version: 6.00 Build 0)  -->
<svg version="1.1" id="cw-tools" xmlns="http://www.w3.org/2000/svg" xmlns:xlink="http://www.w3.org/1999/xlink" x="0px" y="0px"
	 viewBox="0 0 24 22" style="enable-background:new 0 0 24 22;" xml:space="preserve">
<style type="text/css">
	.st0{fill:#383838;}
</style>
<g id="tools" transform="translate(-4 -5)">
	<path class="st0" d="M23.7,14.1c1.1,0,2.1-0.4,2.9-1.2c1-1,1.5-2.5,1.3-3.9l-0.1-0.6l-2.9,2.8l-2-0.7l-0.5-2.2l2.8-2.7l-0.5-0.1
		c-0.3-0.1-0.7-0.1-1-0.1c-1.1,0-2.1,0.4-2.9,1.2c-1,1-1.5,2.5-1.3,3.9l-2.9,2.8c-1.9-1.7-3.6-3.3-3.9-3.6c-0.5-0.6-0.6-1.1-0.5-1.4
		c0.2-0.4,0.9-0.7,1.8-0.7c0.7,0,1.3,0.2,1.5,0.4l0.5,0.4l0.4-0.5L17.1,7l0.5-0.6l-0.6-0.4C15.6,5.4,14.4,5,13.3,5
		c-1.6,0-3.1,0.7-4.3,2.2l0,0l0,0L7.1,9.5L6.7,10l0.4,0.4l0.7,0.6c0,0.1-0.1,0.2-0.1,0.3c-0.1,0.1-0.2,0.2-0.3,0.2l-0.6-0.6
		l-0.5-0.4L5.9,11l-1.5,1.9L4,13.3l0.4,0.4l3.3,2.9L8.2,17l0.4-0.5l1.5-1.9l0.4-0.5L10,13.8l-0.2-0.2c0-0.1,0.1-0.2,0.2-0.3
		c0.1-0.1,0.2-0.2,0.2-0.2c0.3,0.3,1.8,1.5,3.5,3l-7.4,7.2l3.2,3.6l7.8-7.6c0.4,0.4,0.8,0.8,1.1,1.1c1.6,1.8,4.3,4.4,6.4,5.7
		l0.5,0.3l0.3-0.4l1.8-2.3l0.3-0.4l-0.4-0.4c-1.6-1.8-4.3-4.3-6.4-5.7c-0.3-0.2-0.5-0.4-0.9-0.7l2.5-2.4
		C23,14.1,23.3,14.1,23.7,14.1L23.7,14.1z M10.5,12.5c-0.1-0.1-0.2-0.1-0.3-0.1c-0.2,0-0.5,0.2-0.7,0.4c-0.3,0.4-0.4,0.9-0.2,1.1
		l0.3,0.3l-1.5,1.9l-3.3-2.9l1.5-1.9L7.1,12c0.1,0.1,0.2,0.1,0.3,0.1c0.3,0,0.6-0.2,0.8-0.4c0.3-0.4,0.4-0.9,0.1-1.1L7.5,9.9
		l1.9-2.3c1.2-1.4,2.5-2,3.9-2c1.1,0,2.2,0.4,3.3,1l-0.7,0.9c-0.4-0.4-1.1-0.6-1.9-0.6c-1.7,0-3.4,1-1.7,3.2c0,0,0.4,0.4,1.1,1
		L13.2,11l-1.8,2.3C10.8,12.8,10.5,12.5,10.5,12.5L10.5,12.5z M9.5,25.9l-2.3-2.7l7-6.8c0.9,0.8,1.8,1.6,2.7,2.4L9.5,25.9z
		 M20.7,17.6c2,1.3,4.7,3.8,6.3,5.6l-1.8,2.3c-2-1.3-4.7-3.8-6.3-5.6c-0.3-0.3-0.7-0.7-1.1-1.1h0c-0.1-0.1-0.3-0.3-0.4-0.4l0,0
		c-0.8-0.8-1.8-1.6-2.7-2.4h0c0,0,0,0,0,0c-1-0.9-2-1.7-2.8-2.4l1.8-2.2c0.8,0.7,1.9,1.7,2.9,2.7c0,0,0,0,0,0c1,0.9,2,1.8,2.9,2.5
		c0,0,0,0,0,0c0.1,0.1,0.1,0.1,0.2,0.2l0,0C20.1,17.1,20.4,17.4,20.7,17.6L20.7,17.6z M22.5,13.3L19.7,16c-0.8-0.7-1.8-1.5-2.7-2.4
		l3.1-3l0-0.2c-0.2-1.3,0.2-2.6,1.1-3.5c0.7-0.6,1.5-1,2.4-1c0.1,0,0.2,0,0.3,0l-2.2,2.2l0.6,2.9l2.7,0.9l2.2-2.2c0,1-0.4,2-1.2,2.8
		c-0.7,0.6-1.5,1-2.4,1c-0.3,0-0.7,0-1-0.1L22.5,13.3z"/>
</g>
</svg>
