<?xml version="1.0" encoding="utf-8"?>
<!-- Generator: Adobe Illustrator 21.1.0, SVG Export Plug-In . SVG Version: 6.00 Build 0)  -->
<svg version="1.1" id="cw-walk" xmlns="http://www.w3.org/2000/svg" xmlns:xlink="http://www.w3.org/1999/xlink" x="0px" y="0px"
	 viewBox="0 0 8 14" style="enable-background:new 0 0 8 14;" xml:space="preserve">
<style type="text/css">
	.st0{fill:#383838;}
</style>
<g id="walk">
	<path id="body" class="st0" d="M7,12.6c0,0-0.1,0.3-0.4,0.3c-0.2,0-0.3-0.1-0.3-0.1c-0.1-0.1-0.2-0.3-0.2-0.5L5.7,9.9
		c0-0.1-0.1-0.3-0.2-0.4L3.6,7.8C3.5,7.7,3.4,7.6,3.4,7.4V5.1c0-0.1-0.1-0.3-0.1-0.3H3c-0.1,0-0.2,0.1-0.2,0.3L2.7,6.9
		c0,0.1-0.1,0.4-0.1,0.5c0,0-0.1,0.2-0.3,0.2C2,7.6,1.8,7.4,1.9,7.1C1.9,6.5,2,4.6,2,4.6c0-0.1,0.1-0.3,0.2-0.4l1.2-0.8
		c0.1-0.1,0.2-0.1,0.3-0.1c0.1,0,0.1,0,0.1,0c0,0,0.9,0.2,0.9,0.8v3.2c0,0.2,0.1,0.3,0.2,0.4l1.4,1.3c0.1,0.1,0.2,0.3,0.2,0.4L7,12
		c0,0.1,0.1,0.3,0.1,0.3v0.1C7.1,12.5,7.1,12.5,7,12.6 M7.8,11.9c-0.1-0.6-0.4-2.5-0.4-2.5C7.4,9.1,7.2,8.8,7,8.6L5.6,7.3V4.2
		c0-0.9-0.8-1.4-1.5-1.6c-0.1,0-0.2,0-0.3,0C3.5,2.7,3.2,2.7,3,2.9L1.9,3.7c-0.3,0.2-0.5,0.6-0.6,1L1.1,7.2c0,0.6,0.5,1.2,1.2,1.2
		c0.3,0,0.5-0.1,0.6-0.2C3,8.3,3,8.4,3.1,8.5l1.8,1.6v0l0.4,2.4c0.1,0.3,0.2,0.6,0.4,0.8c0.1,0.1,0.4,0.4,0.9,0.4
		c0.6,0,0.9-0.4,1.1-0.7C7.9,12.6,7.9,12.3,7.8,11.9z"/>
	<path id="head" class="st0" d="M4.4,1.3C4.5,1,4.7,0.8,5,0.8c0.4,0,0.6,0.3,0.5,0.6C5.4,1.7,5.2,2,4.9,1.9C4.6,1.9,4.4,1.6,4.4,1.3
		 M4.7,2.7c0.1,0,0.2,0,0.3,0c0.6,0,1.2-0.4,1.3-1.1c0.2-0.7-0.3-1.4-1-1.5c-0.1,0-0.2,0-0.3,0c-0.6,0-1.2,0.4-1.3,1.1
		C3.5,1.8,4,2.5,4.7,2.7"/>
	<path id="leg" class="st0" d="M1.8,13c-0.1,0.1-0.2,0.2-0.4,0.2c-0.3,0-0.5-0.2-0.5-0.5c0-0.1,0.1-0.2,0.1-0.3L3.1,9L2.9,8.9
		C2.9,8.8,2.8,8.7,2.7,8.6C2.6,8.7,2.5,8.8,2.3,8.8l-1.9,3.1c-0.2,0.2-0.3,0.5-0.3,0.8c0,0.7,0.6,1.3,1.3,1.3c0.4,0,0.8-0.2,1.1-0.6
		l2-3.1L3.9,9.7L1.8,13z"/>
	<path id="arm" class="st0" d="M6,4.5v0.8l0.9,0.8C7,6.2,7.1,6.3,7.1,6.4c0,0.2-0.2,0.4-0.4,0.4c-0.1,0-0.2,0-0.2-0.1
		c0,0-0.4-0.4-0.5-0.5v1c0,0,0.1,0.1,0.1,0.1c0.2,0.1,0.4,0.2,0.6,0.2c0.6,0,1.1-0.5,1.1-1.1c0-0.5-0.3-0.7-0.4-0.8L6,4.2
		C6,4.3,6,4.4,6,4.5"/>
</g>
</svg>
