<?xml version="1.0" encoding="utf-8"?>
<!-- Generator: Adobe Illustrator 21.1.0, SVG Export Plug-In . SVG Version: 6.00 Build 0)  -->
<svg version="1.1" id="cw-boat" xmlns="http://www.w3.org/2000/svg" xmlns:xlink="http://www.w3.org/1999/xlink" x="0px" y="0px"
	 viewBox="0 0 24 24" style="enable-background:new 0 0 24 24;" xml:space="preserve">
<style type="text/css">
	.st0{fill:#f0c41e;}
</style>
<g>
	<g>
		<path class="st0" d="M12,23.4C5.7,23.4,0.6,18.3,0.6,12C0.6,5.7,5.7,0.6,12,0.6c6.3,0,11.4,5.1,11.4,11.4
			C23.4,18.3,18.3,23.4,12,23.4 M12,0C5.4,0,0,5.4,0,12c0,6.6,5.4,12,12,12c6.6,0,12-5.4,12-12C24,5.4,18.6,0,12,0"/>
	</g>
	<g>
		<path class="st0" d="M15.3,17.1v-0.3c1.1-0.1,2-1,2-2.1s-0.9-2-2-2.1v-0.3c1.3,0.1,2.3,1.1,2.3,2.4C17.6,15.9,16.6,17,15.3,17.1
			 M11.7,19.1c-1.9,0-3-0.3-3.2-0.5v-7.6c0.9,0.4,2.9,0.4,3.2,0.4s2.3,0,3.2-0.4v7.6C14.7,18.8,13.6,19.1,11.7,19.1 M11.7,10
			c1.9,0,3,0.3,3.2,0.5c-0.2,0.2-1.3,0.5-3.2,0.5s-3-0.3-3.2-0.5C8.7,10.3,9.8,10,11.7,10 M15.3,13c0.9,0.1,1.6,0.8,1.6,1.7
			c0,0.9-0.7,1.6-1.6,1.7V13z M15.3,11.9v-1.4c0-0.9-3.2-0.9-3.6-0.9s-3.6,0-3.6,0.9v8.1c0,0.9,3.2,0.9,3.6,0.9s3.6,0,3.6-0.9v-1.1
			c1.5-0.1,2.8-1.3,2.8-2.8C18,13.2,16.8,12,15.3,11.9"/>
	</g>
	<g>
		<path class="st0" d="M10.5,6.9L10.5,6.9c0,0,0.5,0.5,0.4,0.9c-0.1,0.3-0.4,0.6-0.9,0.8c-0.1,0-0.2,0.2-0.1,0.3
			c0,0.1,0.1,0.1,0.2,0.1c0,0,0.1,0,0.1,0c0.7-0.3,1.1-0.7,1.2-1.1c0.1-0.7-0.5-1.3-0.6-1.3l0,0c-0.4-0.4-0.6-0.8-0.6-1.1
			c0.1-0.5,0.7-0.7,0.7-0.7c0.1,0,0.2-0.2,0.1-0.3c0-0.1-0.2-0.2-0.3-0.1c0,0-0.8,0.3-1,1.1C9.7,5.9,10,6.4,10.5,6.9"/>
	</g>
	<g>
		<path class="st0" d="M12.9,6.9L12.9,6.9c0,0,0.5,0.5,0.4,0.9c-0.1,0.3-0.4,0.6-0.9,0.8c-0.1,0-0.2,0.2-0.1,0.3
			c0,0.1,0.1,0.1,0.2,0.1c0,0,0.1,0,0.1,0c0.7-0.3,1.1-0.7,1.2-1.1c0.1-0.7-0.5-1.3-0.6-1.3l0,0c-0.4-0.4-0.6-0.8-0.6-1.1
			c0.1-0.5,0.7-0.7,0.7-0.7c0.1,0,0.2-0.2,0.1-0.3c0-0.1-0.2-0.2-0.3-0.1c0,0-0.8,0.3-1,1.1C12.1,5.9,12.3,6.4,12.9,6.9"/>
	</g>
</g>
</svg>
