<?xml version="1.0" encoding="utf-8"?>
<!-- Generator: Adobe Illustrator 21.1.0, SVG Export Plug-In . SVG Version: 6.00 Build 0)  -->
<svg version="1.1" id="cw-boat" xmlns="http://www.w3.org/2000/svg" xmlns:xlink="http://www.w3.org/1999/xlink" x="0px" y="0px"
	 viewBox="0 0 24 24" style="enable-background:new 0 0 24 24;" xml:space="preserve">
<style type="text/css">
	.st0{fill:#f0c41e;}
</style>
<g>
	<path class="st0" d="M12,23.4C5.7,23.4,0.6,18.3,0.6,12C0.6,5.7,5.7,0.6,12,0.6c6.3,0,11.4,5.1,11.4,11.4
		C23.4,18.3,18.3,23.4,12,23.4 M12,0C5.4,0,0,5.4,0,12c0,6.6,5.4,12,12,12c6.6,0,12-5.4,12-12C24,5.4,18.6,0,12,0"/>
	<g>
		<path class="st0" d="M16.1,9.5c-0.1,0-0.2,0-0.2,0.1l-1.1,1.7c-0.1,0.1-0.1,0.2,0,0.3s0.1,0.1,0.2,0.1h2.2c0.1,0,0.2-0.1,0.2-0.1
			c0-0.1,0-0.2,0-0.3l-1.1-1.7C16.3,9.5,16.2,9.5,16.1,9.5z M15.5,11.2l0.6-0.9l0.6,0.9H15.5z"/>
		<path class="st0" d="M17.2,12.3H15c-0.1,0-0.2,0.1-0.2,0.1c0,0.1,0,0.2,0,0.3l1.1,1.7c0.1,0.1,0.1,0.1,0.2,0.1s0.2,0,0.2-0.1
			l1.1-1.7c0.1-0.1,0.1-0.2,0-0.3C17.4,12.3,17.3,12.3,17.2,12.3z M16.1,13.7l-0.6-0.9h1.2L16.1,13.7z"/>
		<path class="st0" d="M7.8,17h6.1c0.2,0,0.3-0.1,0.3-0.3V7.3C14.2,7.1,14,7,13.9,7H7.8C7.6,7,7.5,7.1,7.5,7.3v9.4
			C7.5,16.9,7.6,17,7.8,17z M11.1,7.6h2.5v8.9h-2.5V7.6z M8.1,7.6h2.5v8.9H8.1V7.6z"/>
	</g>
</g>
</svg>
