<?xml version="1.0" encoding="utf-8"?>
<!-- Generator: Adobe Illustrator 21.1.0, SVG Export Plug-In . SVG Version: 6.00 Build 0)  -->
<svg version="1.1" id="cw-boat" xmlns="http://www.w3.org/2000/svg" xmlns:xlink="http://www.w3.org/1999/xlink" x="0px" y="0px"
	 viewBox="0 0 24 24" style="enable-background:new 0 0 24 24;" xml:space="preserve">
<style type="text/css">
	.st0{fill:#f0c41e;}
	.st1{fill:#2e2e2f;}
</style>
<g>
	<path class="st0" d="M12,23.4C5.7,23.4,0.6,18.3,0.6,12C0.6,5.7,5.7,0.6,12,0.6c6.3,0,11.4,5.1,11.4,11.4
		C23.4,18.3,18.3,23.4,12,23.4 M12,0C5.4,0,0,5.4,0,12c0,6.6,5.4,12,12,12c6.6,0,12-5.4,12-12C24,5.4,18.6,0,12,0"/>
	<g>
		<g>
			<path class="st0" d="M13.1,17.6h-0.9v-3.9h3.7c0.1,0,0.2-0.1,0.2-0.2v-0.7c0-0.1-0.1-0.2-0.2-0.2h-3.7V9h5.6
				C17.9,9,17.9,9,18,8.9c0-0.1,0-0.2-0.1-0.2l-5.8-2.6c-0.1,0-0.1,0-0.1,0L6.1,8.7C6.1,8.7,6,8.8,6,8.9C6.1,8.9,6.1,9,6.2,9h5.6
				v3.5H8.1c-0.1,0-0.2,0.1-0.2,0.2v0.7c0,0.1,0.1,0.2,0.2,0.2h3.7v3.9h-0.9c-0.1,0-0.2,0.1-0.2,0.2c0,0.1,0.1,0.2,0.2,0.2h2.2
				c0.1,0,0.2-0.1,0.2-0.2C13.3,17.7,13.2,17.6,13.1,17.6z M13.6,8.6h-3.2L12,6.6L13.6,8.6z M13.8,8.6l-1.6-2.1l4.7,2.1H13.8z
				 M11.8,6.5l-1.6,2.1H7.1L11.8,6.5z M8.3,12.9h7.5v0.4H8.3V12.9z M17.8,11.1H17c-0.1,0-0.2,0.1-0.2,0.2v3.2h-2.4
				c-0.1,0-0.2,0.1-0.2,0.2v0.7v2.4c0,0.1,0.1,0.2,0.2,0.2s0.2-0.1,0.2-0.2v-0.6h3v0.6c0,0.1,0.1,0.2,0.2,0.2s0.2-0.1,0.2-0.2v-2.4
				v-4.1C18,11.1,17.9,11.1,17.8,11.1z M14.6,14.8h2.6v-3.4h0.4v3.7h-3V14.8z M14.6,16.8v-1.3h3v1.3H14.6z M9.6,14.4H7.2v-3.2
				c0-0.1-0.1-0.2-0.2-0.2H6.2c-0.1,0-0.2,0.1-0.2,0.2v4.1v2.4C6,17.9,6.1,18,6.2,18s0.2-0.1,0.2-0.2v-0.6h3v0.6
				c0,0.1,0.1,0.2,0.2,0.2s0.2-0.1,0.2-0.2v-2.4v-0.7C9.8,14.5,9.7,14.4,9.6,14.4z M6.4,11.4h0.4v3.4h2.6v0.4h-3V11.4z M6.4,16.8
				v-1.3h3v1.3H6.4z"/>
		</g>
		<polygon class="st1" points="12,6.4 7.1,8.6 12,8.6 16.9,8.6 		"/>
	</g>
</g>
</svg>
