<?xml version="1.0" encoding="utf-8"?>
<!-- Generator: Adobe Illustrator 21.0.2, SVG Export Plug-In . SVG Version: 6.00 Build 0)  -->
<svg version="1.1" id="floor-plan" xmlns="http://www.w3.org/2000/svg" xmlns:xlink="http://www.w3.org/1999/xlink" x="0px" y="0px"
	 viewBox="0 0 64 64" style="enable-background:new 0 0 64 64;" xml:space="preserve">
<style type="text/css">
	.st0{fill:#808080;}
</style>
<path class="st0" d="M56,7.5H44.5C43.7,7.5,43,8.2,43,9s0.7,1.5,1.5,1.5h10v19H45c-0.8,0-1.5,0.7-1.5,1.5s0.7,1.5,1.5,1.5h9.5v21
	h-24v-15h5c0.8,0,1.5-0.7,1.5-1.5s-0.7-1.5-1.5-1.5h-13c-0.8,0-1.5,0.7-1.5,1.5s0.7,1.5,1.5,1.5h5v15h-16v-43h11.9l8.1,8.1
	c0.6,0.6,1.5,0.6,2.1,0c0.6-0.6,0.6-1.5,0-2.1l-8.5-8.5c-0.3-0.3-0.7-0.4-1.1-0.4H10C9.2,7.5,8.5,8.2,8.5,9v46
	c0,0.8,0.7,1.5,1.5,1.5h46c0.8,0,1.5-0.7,1.5-1.5V9C57.5,8.2,56.8,7.5,56,7.5z"/>
</svg>
