<?xml version="1.0" encoding="utf-8"?>
<!-- Generator: Adobe Illustrator 21.0.2, SVG Export Plug-In . SVG Version: 6.00 Build 0)  -->
<svg version="1.1" id="Layer_1" xmlns="http://www.w3.org/2000/svg" xmlns:xlink="http://www.w3.org/1999/xlink" x="0px" y="0px"
	 viewBox="0 0 64 64" style="enable-background:new 0 0 64 64;" xml:space="preserve">
<style type="text/css">
	.st0{fill:#808080;}
</style>
<g id="future">
	<path class="st0" d="M22,14.5c0.4,0,0.9-0.2,1.2-0.5l2.3-2.7c0.8-0.9,2.1-1,3-0.2c0.1,0.1,0.1,0.1,0.2,0.2l2.3,2.7
		c0.5,0.6,1.5,0.7,2.1,0.2c0.6-0.5,0.7-1.5,0.2-2.1l-2.3-2.8c-0.1-0.2-0.3-0.3-0.5-0.5c-2.1-1.9-5.4-1.6-7.2,0.5L20.8,12
		c-0.5,0.6-0.4,1.6,0.2,2.1C21.3,14.4,21.7,14.5,22,14.5z"/>
	<path class="st0" d="M57.6,21.5l-4.1-4.8c-0.9-1-2.1-1.5-3.4-1.5H13.5c0,0,0,0,0,0c-2.4,0-4.4,1.9-4.5,4.5c0.1,2.4,2,4.4,4.5,4.4
		c0,0,0,0,0,0h35v5.7h-4c-0.8,0-1.5,0.7-1.5,1.5V37c0,0.8,0.7,1.5,1.5,1.5h11c0.8,0,1.5-0.7,1.5-1.5v-5.8c0-0.8-0.7-1.5-1.5-1.5h-4
		V24h5c0.6,0,1.1-0.3,1.4-0.9S58,22,57.6,21.5z M54,35.5h-8v-2.8h8V35.5z M13.5,21C13.5,21,13.5,21,13.5,21c-0.8,0-1.5-0.6-1.5-1.4
		c0-0.8,0.7-1.5,1.5-1.5c0,0,0,0,0,0l36.6,0c0.4,0,0.9,0.2,1.1,0.5l2,2.3H13.5z"/>
	<path class="st0" d="M33.5,48.9V27.4c0-0.8-0.7-1.5-1.5-1.5s-1.5,0.7-1.5,1.5v21.3h-7V27.4c0-0.8-0.7-1.5-1.5-1.5s-1.5,0.7-1.5,1.5
		v21.6C17.9,49.7,16,52.1,16,55c0,0.8,0.7,1.5,1.5,1.5h19c0.8,0,1.5-0.7,1.5-1.5C38,52.1,36.1,49.7,33.5,48.9z M19.4,53.5
		c0.6-1.1,1.7-1.8,3-1.8h0.5c0.1,0,0.2,0,0.3,0c0,0,0,0,0,0h7.5c0.1,0,0.2,0,0.3,0h0.6c1.3,0,2.4,0.8,3,1.8H19.4z"/>
	<path class="st0" d="M55.5,41.9h-11c-0.8,0-1.5,0.7-1.5,1.5v5.8V55c0,0.8,0.7,1.5,1.5,1.5h11c0.8,0,1.5-0.7,1.5-1.5v-5.8v-5.8
		C57,42.5,56.3,41.9,55.5,41.9z M46,44.9h8v2.8h-8V44.9z M54,53.5h-8v-2.8h8V53.5z"/>
</g>
</svg>
