<?xml version="1.0" encoding="utf-8"?>
<!-- Generator: Adobe Illustrator 21.0.2, SVG Export Plug-In . SVG Version: 6.00 Build 0)  -->
<svg version="1.1" id="Layer_1" xmlns="http://www.w3.org/2000/svg" xmlns:xlink="http://www.w3.org/1999/xlink" x="0px" y="0px"
	 viewBox="0 0 64 64" style="enable-background:new 0 0 64 64;" xml:space="preserve">
<style type="text/css">
	.st0{fill:#808080;}
</style>
<g id="gallery">
	<path class="st0" d="M54,7.5H10c-1.4,0-2.5,1.1-2.5,2.5v44c0,1.4,1.1,2.5,2.5,2.5h44c1.4,0,2.5-1.1,2.5-2.5V10
		C56.5,8.6,55.4,7.5,54,7.5z M10.5,53.5V40.8c0,0,0.1,0,0.1-0.1l10.8-10l4.9,5.9c0,0,0,0,0,0c0,0,0,0,0,0l0.9,1l14.4,15.9H10.5z
		 M53.5,53.5h-7.9c0,0,0,0,0,0L29.4,35.7l11-10.1l12.9,13.1c0.1,0.1,0.1,0.1,0.2,0.1V53.5z M53.5,34.6L41.6,22.4
		c-0.6-0.6-1.5-0.6-2.1-0.1l-12,11l-4.9-5.8C22.4,27.2,22,27,21.6,27c-0.4,0-0.8,0.1-1.1,0.4l-10,9.3V10.5h43V34.6z"/>
	<path class="st0" d="M18,24c3.3,0,6-2.7,6-6s-2.7-6-6-6s-6,2.7-6,6S14.7,24,18,24z M18,15c1.7,0,3,1.3,3,3s-1.3,3-3,3s-3-1.3-3-3
		S16.3,15,18,15z"/>
</g>
</svg>
