<?xml version="1.0" encoding="utf-8"?>
<!-- Generator: Adobe Illustrator 21.0.2, SVG Export Plug-In . SVG Version: 6.00 Build 0)  -->
<svg version="1.1" id="home" xmlns="http://www.w3.org/2000/svg" xmlns:xlink="http://www.w3.org/1999/xlink" x="0px" y="0px"
	 viewBox="0 0 64 64" style="enable-background:new 0 0 64 64;" xml:space="preserve">
<style type="text/css">
	.st0{fill:#808080;}
</style>
<path class="st0" d="M53.5,31.1c-0.8,0-1.5,0.7-1.5,1.5v22.9H40.5v-15c0-0.8-0.7-1.5-1.5-1.5H27c-0.8,0-1.5,0.7-1.5,1.5v15H14V32.6
	c0-0.8-0.7-1.5-1.5-1.5S11,31.8,11,32.6V57c0,0.8,0.7,1.5,1.5,1.5H27c0.8,0,1.5-0.7,1.5-1.5V42h9v15c0,0.8,0.7,1.5,1.5,1.5h14.5
	c0.8,0,1.5-0.7,1.5-1.5V32.6C55,31.8,54.3,31.1,53.5,31.1z"/>
<path class="st0" d="M59,28.6L34,5.9c-0.6-0.5-1.4-0.5-2,0L7,28.6c-0.6,0.6-0.7,1.5-0.1,2.1c0.6,0.6,1.5,0.7,2.1,0.1L33,9l24,21.8
	c0.3,0.3,0.6,0.4,1,0.4c0.4,0,0.8-0.2,1.1-0.5C59.7,30.1,59.6,29.1,59,28.6z"/>
<path class="st0" d="M33,31.9c3.5,0,6.4-2.9,6.4-6.4s-2.9-6.4-6.4-6.4s-6.4,2.9-6.4,6.4S29.5,31.9,33,31.9z M33,22.1
	c1.9,0,3.4,1.5,3.4,3.4s-1.5,3.4-3.4,3.4s-3.4-1.5-3.4-3.4S31.1,22.1,33,22.1z"/>
</svg>
