<?xml version="1.0" encoding="utf-8"?>
<!-- Generator: Adobe Illustrator 21.0.2, SVG Export Plug-In . SVG Version: 6.00 Build 0)  -->
<svg version="1.1" id="location" xmlns="http://www.w3.org/2000/svg" xmlns:xlink="http://www.w3.org/1999/xlink" x="0px" y="0px"
	 viewBox="0 0 64 64" style="enable-background:new 0 0 64 64;" xml:space="preserve">
<style type="text/css">
	.st0{fill:#808080;}
</style>
<path class="st0" d="M33,44.3c0.5,0,0.9-0.2,1.2-0.6c0.5-0.6,12.5-15.6,12.5-24.8c0-6.8-4.8-14-13.7-14c-6.8,0-13.7,4.8-13.7,14
	c0,9.2,12,24.1,12.5,24.8C32.1,44.1,32.5,44.3,33,44.3z M33,8c7,0,10.7,5.5,10.7,11c0,6.6-7.7,17.4-10.7,21.4
	c-3-4-10.7-14.8-10.7-21.4C22.3,13.6,26,8,33,8z"/>
<path class="st0" d="M38.5,17.6c0-3-2.5-5.5-5.5-5.5c-3,0-5.5,2.5-5.5,5.5s2.5,5.5,5.5,5.5C36,23.1,38.5,20.6,38.5,17.6z M30.5,17.6
	c0-1.4,1.1-2.5,2.5-2.5c1.4,0,2.5,1.1,2.5,2.5s-1.1,2.5-2.5,2.5C31.6,20.1,30.5,18.9,30.5,17.6z"/>
<path class="st0" d="M59.2,54l-8.8-18c-0.4-0.7-1.3-1-2-0.7c-0.7,0.4-1.1,1.3-0.7,2l8.7,17.7l-10.8-3.9c-0.7-0.3-1.6-0.3-2.3,0.1
	l-9.5,4.5c-0.4,0.2-0.9,0.2-1.2,0L23,51.3c-0.7-0.3-1.5-0.4-2.3-0.1l-11,4l8.7-17.8c0.4-0.7,0.1-1.6-0.7-2c-0.7-0.4-1.6-0.1-2,0.7
	L6.8,54.1c-0.3,0.7-0.3,1.5,0,2.2c0.3,0.7,0.9,1.3,1.6,1.6c0.7,0.3,1.4,0.3,2.1,0l11.2-4l9.5,4.5c0.6,0.3,1.2,0.4,1.9,0.4
	c0.6,0,1.3-0.1,1.9-0.4l9.5-4.5l10.9,3.9c1.5,0.6,3.2-0.1,3.8-1.6C59.5,55.6,59.5,54.8,59.2,54z"/>
</svg>
