<?xml version="1.0" encoding="utf-8"?>
<!-- Generator: Adobe Illustrator 21.0.2, SVG Export Plug-In . SVG Version: 6.00 Build 0)  -->
<svg version="1.1" id="vitals" xmlns="http://www.w3.org/2000/svg" xmlns:xlink="http://www.w3.org/1999/xlink" x="0px" y="0px"
	 viewBox="0 0 64 64" style="enable-background:new 0 0 64 64;" xml:space="preserve">
<style type="text/css">
	.st0{fill:#808080;}
</style>
<path class="st0" d="M32,7.5C18.5,7.5,7.5,18.5,7.5,32s11,24.5,24.5,24.5s24.5-11,24.5-24.5S45.5,7.5,32,7.5z M32,53.5
	c-11.9,0-21.5-9.6-21.5-21.5S20.1,10.5,32,10.5S53.5,20.1,53.5,32S43.9,53.5,32,53.5z M36.5,45h-3V27.5c0-0.8-0.7-1.5-1.5-1.5h-3
	c-0.8,0-1.5,0.7-1.5,1.5S28.2,29,29,29h1.5v16h-3c-0.8,0-1.5,0.7-1.5,1.5s0.7,1.5,1.5,1.5h9c0.8,0,1.5-0.7,1.5-1.5S37.3,45,36.5,45z
	 M32,17c1.7,0,3,1.3,3,3s-1.3,3-3,3c-1.7,0-3-1.3-3-3S30.3,17,32,17z"/>
</svg>
