<?xml version="1.0" encoding="utf-8"?>
<!-- Generator: Adobe Illustrator 21.1.0, SVG Export Plug-In . SVG Version: 6.00 Build 0)  -->
<svg version="1.1" id="cw-boat" xmlns="http://www.w3.org/2000/svg" xmlns:xlink="http://www.w3.org/1999/xlink" x="0px" y="0px"
	 viewBox="0 0 24 24" style="enable-background:new 0 0 24 24;" xml:space="preserve">
<style type="text/css">
	.st0{fill:#f0c41e;}
</style>
<g>
	<path class="st0" d="M12,23.4C5.7,23.4,0.6,18.3,0.6,12C0.6,5.7,5.7,0.6,12,0.6c6.3,0,11.4,5.1,11.4,11.4
		C23.4,18.3,18.3,23.4,12,23.4 M12,0C5.4,0,0,5.4,0,12c0,6.6,5.4,12,12,12c6.6,0,12-5.4,12-12C24,5.4,18.6,0,12,0"/>
	<g>
		<g>
			<path class="st0" d="M7.7,13l0.9-0.8c0.4-0.3,0.5-0.5,0.5-0.7C9.2,11.2,9,11,8.7,11c-0.2,0-0.4,0.1-0.6,0.4l-0.3-0.3
				c0.3-0.4,0.5-0.6,1-0.6c0.5,0,0.9,0.3,0.9,0.8v0c0,0.4-0.2,0.7-0.7,1l-0.6,0.5h1.3v0.4H7.7V13z"/>
			<path class="st0" d="M11.4,11.1h-1.4v-0.4H12V11l-1.2,2.3h-0.5L11.4,11.1z"/>
			<path class="st0" d="M12.2,12L12.2,12c0-0.8,0.5-1.4,1.2-1.4c0.7,0,1.2,0.6,1.2,1.4v0c0,0.8-0.5,1.4-1.2,1.4
				C12.6,13.4,12.2,12.8,12.2,12z M14,12L14,12c0-0.5-0.3-1-0.7-1c-0.4,0-0.7,0.4-0.7,1v0c0,0.5,0.3,1,0.7,1C13.8,13,14,12.5,14,12z
				"/>
			<path class="st0" d="M15,11.3L15,11.3c0-0.3,0.3-0.6,0.6-0.6c0.3,0,0.6,0.3,0.6,0.6v0c0,0.3-0.3,0.6-0.6,0.6
				C15.3,11.9,15,11.6,15,11.3z M16,11.3L16,11.3c0-0.2-0.2-0.4-0.4-0.4c-0.2,0-0.4,0.2-0.4,0.4v0c0,0.2,0.2,0.4,0.4,0.4
				C15.8,11.6,16,11.5,16,11.3z"/>
		</g>
		<g>
			<path class="st0" d="M11.8,17.8c2.4,0,4.5-1.5,5.3-3.6c0.2,0,0.5,0.1,0.7,0.1c0,0,0,0,0,0c0,0,0.1,0,0.1,0c0,0,0,0,0-0.1
				c-0.1-0.9-0.2-1.9-0.4-2.9c0-0.2-0.1-0.4-0.1-0.6c0,0,0-0.1-0.1-0.1c0,0-0.1,0-0.1,0.1c-0.3,0.7-0.6,1.5-1,2.2
				c-0.2,0.3-0.3,0.6-0.5,0.9c0,0,0,0.1,0,0.1c0,0,0,0.1,0.1,0.1c0.2,0.1,0.5,0.1,0.8,0.2c-0.8,1.8-2.6,3.1-4.8,3.1
				c-2.9,0-5.2-2.3-5.2-5.2s2.3-5.2,5.2-5.2c0.2,0,0.3-0.1,0.3-0.3c0-0.2-0.1-0.3-0.3-0.3C8.6,6.2,6,8.8,6,12S8.6,17.8,11.8,17.8z"
				/>
		</g>
	</g>
</g>
</svg>
